<svg width="228" height="110" viewBox="0 0 228 110" fill="none" xmlns="http://www.w3.org/2000/svg">
<path d="M105.494 67.2592C104.854 67.2592 104.363 67.0672 104.022 66.6832C103.68 66.2992 103.51 65.7658 103.51 65.0832V53.3392C103.51 52.6352 103.68 52.1018 104.022 51.7392C104.363 51.3552 104.854 51.1632 105.494 51.1632C106.134 51.1632 106.624 51.3552 106.966 51.7392C107.328 52.1018 107.51 52.6352 107.51 53.3392V65.0832C107.51 65.7658 107.339 66.2992 106.998 66.6832C106.656 67.0672 106.155 67.2592 105.494 67.2592ZM105.494 48.1872C104.747 48.1872 104.16 48.0058 103.734 47.6432C103.328 47.2592 103.126 46.7365 103.126 46.0752C103.126 45.3925 103.328 44.8698 103.734 44.5072C104.16 44.1445 104.747 43.9632 105.494 43.9632C106.262 43.9632 106.848 44.1445 107.254 44.5072C107.659 44.8698 107.862 45.3925 107.862 46.0752C107.862 46.7365 107.659 47.2592 107.254 47.6432C106.848 48.0058 106.262 48.1872 105.494 48.1872ZM114.098 67.2912C113.437 67.2912 112.925 67.1098 112.562 66.7472C112.221 66.3632 112.05 65.8405 112.05 65.1792V46.5552C112.05 45.8725 112.231 45.3605 112.594 45.0192C112.957 44.6565 113.469 44.4752 114.13 44.4752H121.842C124.317 44.4752 126.226 45.0938 127.57 46.3312C128.914 47.5685 129.586 49.2965 129.586 51.5152C129.586 53.7338 128.914 55.4725 127.57 56.7312C126.226 57.9685 124.317 58.5872 121.842 58.5872H116.146V65.1792C116.146 65.8405 115.975 66.3632 115.634 66.7472C115.293 67.1098 114.781 67.2912 114.098 67.2912ZM116.146 55.3552H121.202C122.653 55.3552 123.751 55.0352 124.498 54.3952C125.245 53.7338 125.618 52.7738 125.618 51.5152C125.618 50.2565 125.245 49.3072 124.498 48.6672C123.751 48.0272 122.653 47.7072 121.202 47.7072H116.146V55.3552ZM137.885 67.3552C136.114 67.3552 134.781 66.8538 133.885 65.8512C132.989 64.8272 132.541 63.3338 132.541 61.3712V46.2352C132.541 45.5738 132.712 45.0725 133.053 44.7312C133.394 44.3898 133.885 44.2192 134.525 44.2192C135.165 44.2192 135.656 44.3898 135.997 44.7312C136.36 45.0725 136.541 45.5738 136.541 46.2352V61.1792C136.541 62.1605 136.744 62.8858 137.149 63.3552C137.576 63.8245 138.173 64.0592 138.941 64.0592C139.112 64.0592 139.272 64.0592 139.421 64.0592C139.57 64.0378 139.72 64.0165 139.869 63.9952C140.168 63.9525 140.37 64.0378 140.477 64.2512C140.584 64.4432 140.637 64.8485 140.637 65.4672C140.637 66.0005 140.53 66.4165 140.317 66.7152C140.104 67.0138 139.752 67.1952 139.261 67.2592C139.048 67.2805 138.824 67.3018 138.589 67.3232C138.354 67.3445 138.12 67.3552 137.885 67.3552ZM147.912 67.3552C146.781 67.3552 145.768 67.1418 144.872 66.7152C143.997 66.2672 143.304 65.6698 142.792 64.9232C142.301 64.1765 142.056 63.3338 142.056 62.3952C142.056 61.2432 142.354 60.3365 142.952 59.6752C143.549 58.9925 144.52 58.5018 145.864 58.2032C147.208 57.9045 149.01 57.7552 151.272 57.7552H152.872V60.0592H151.304C149.981 60.0592 148.925 60.1232 148.136 60.2512C147.346 60.3792 146.781 60.6032 146.44 60.9232C146.12 61.2218 145.96 61.6485 145.96 62.2032C145.96 62.9072 146.205 63.4832 146.696 63.9312C147.186 64.3792 147.869 64.6032 148.744 64.6032C149.448 64.6032 150.066 64.4432 150.6 64.1232C151.154 63.7818 151.592 63.3232 151.912 62.7472C152.232 62.1712 152.392 61.5098 152.392 60.7632V57.0832C152.392 56.0165 152.157 55.2485 151.688 54.7792C151.218 54.3098 150.429 54.0752 149.32 54.0752C148.701 54.0752 148.029 54.1498 147.304 54.2992C146.6 54.4485 145.853 54.7045 145.064 55.0672C144.658 55.2592 144.296 55.3125 143.976 55.2272C143.677 55.1418 143.442 54.9712 143.272 54.7152C143.101 54.4378 143.016 54.1392 143.016 53.8192C143.016 53.4992 143.101 53.1898 143.272 52.8912C143.442 52.5712 143.73 52.3365 144.136 52.1872C145.117 51.7818 146.056 51.4938 146.952 51.3232C147.869 51.1525 148.701 51.0672 149.448 51.0672C150.984 51.0672 152.242 51.3018 153.224 51.7712C154.226 52.2405 154.973 52.9552 155.464 53.9152C155.954 54.8538 156.2 56.0698 156.2 57.5632V65.2432C156.2 65.9045 156.04 66.4165 155.72 66.7792C155.4 67.1205 154.941 67.2912 154.344 67.2912C153.746 67.2912 153.277 67.1205 152.936 66.7792C152.616 66.4165 152.456 65.9045 152.456 65.2432V63.7072H152.712C152.562 64.4538 152.264 65.1045 151.816 65.6592C151.389 66.1925 150.845 66.6085 150.184 66.9072C149.522 67.2058 148.765 67.3552 147.912 67.3552ZM162.244 67.2912C161.604 67.2912 161.113 67.1205 160.772 66.7792C160.43 66.4165 160.26 65.9045 160.26 65.2432V53.1472C160.26 52.4858 160.43 51.9845 160.772 51.6432C161.113 51.3018 161.593 51.1312 162.212 51.1312C162.83 51.1312 163.31 51.3018 163.652 51.6432C163.993 51.9845 164.164 52.4858 164.164 53.1472V55.3232L163.812 54.5232C164.281 53.3925 165.006 52.5392 165.988 51.9632C166.99 51.3658 168.121 51.0672 169.38 51.0672C170.638 51.0672 171.673 51.3018 172.484 51.7712C173.294 52.2405 173.902 52.9552 174.308 53.9152C174.713 54.8538 174.916 56.0485 174.916 57.4992V65.2432C174.916 65.9045 174.745 66.4165 174.404 66.7792C174.062 67.1205 173.572 67.2912 172.932 67.2912C172.292 67.2912 171.79 67.1205 171.428 66.7792C171.086 66.4165 170.916 65.9045 170.916 65.2432V57.6912C170.916 56.4752 170.681 55.5898 170.212 55.0352C169.764 54.4805 169.06 54.2032 168.1 54.2032C166.926 54.2032 165.988 54.5765 165.284 55.3232C164.601 56.0485 164.26 57.0192 164.26 58.2352V65.2432C164.26 66.6085 163.588 67.2912 162.244 67.2912ZM180.963 67.2912C180.323 67.2912 179.832 67.1205 179.491 66.7792C179.149 66.4165 178.979 65.9045 178.979 65.2432V53.1472C178.979 52.4858 179.149 51.9845 179.491 51.6432C179.832 51.3018 180.312 51.1312 180.931 51.1312C181.549 51.1312 182.029 51.3018 182.371 51.6432C182.712 51.9845 182.883 52.4858 182.883 53.1472V55.3232L182.531 54.5232C183 53.3925 183.725 52.5392 184.707 51.9632C185.709 51.3658 186.84 51.0672 188.099 51.0672C189.357 51.0672 190.392 51.3018 191.203 51.7712C192.013 52.2405 192.621 52.9552 193.027 53.9152C193.432 54.8538 193.635 56.0485 193.635 57.4992V65.2432C193.635 65.9045 193.464 66.4165 193.123 66.7792C192.781 67.1205 192.291 67.2912 191.651 67.2912C191.011 67.2912 190.509 67.1205 190.147 66.7792C189.805 66.4165 189.635 65.9045 189.635 65.2432V57.6912C189.635 56.4752 189.4 55.5898 188.931 55.0352C188.483 54.4805 187.779 54.2032 186.819 54.2032C185.645 54.2032 184.707 54.5765 184.003 55.3232C183.32 56.0485 182.979 57.0192 182.979 58.2352V65.2432C182.979 66.6085 182.307 67.2912 180.963 67.2912ZM205.409 67.3552C203.639 67.3552 202.113 67.0245 200.833 66.3632C199.553 65.7018 198.561 64.7632 197.857 63.5472C197.175 62.3312 196.833 60.8912 196.833 59.2272C196.833 57.6058 197.164 56.1872 197.825 54.9712C198.508 53.7552 199.436 52.8058 200.609 52.1232C201.804 51.4192 203.159 51.0672 204.673 51.0672C205.783 51.0672 206.775 51.2485 207.649 51.6112C208.545 51.9738 209.303 52.4965 209.921 53.1792C210.561 53.8618 211.041 54.6938 211.361 55.6752C211.703 56.6352 211.873 57.7232 211.873 58.9392C211.873 59.3232 211.735 59.6218 211.457 59.8352C211.201 60.0272 210.828 60.1232 210.337 60.1232H200.065V57.8192H209.057L208.545 58.2992C208.545 57.3178 208.396 56.4965 208.097 55.8352C207.82 55.1738 207.404 54.6725 206.849 54.3312C206.316 53.9685 205.644 53.7872 204.833 53.7872C203.937 53.7872 203.169 54.0005 202.529 54.4272C201.911 54.8325 201.431 55.4192 201.089 56.1872C200.769 56.9338 200.609 57.8298 200.609 58.8752V59.0992C200.609 60.8485 201.015 62.1605 201.825 63.0352C202.657 63.8885 203.873 64.3152 205.473 64.3152C206.028 64.3152 206.647 64.2512 207.329 64.1232C208.033 63.9738 208.695 63.7285 209.313 63.3872C209.761 63.1312 210.156 63.0245 210.497 63.0672C210.839 63.0885 211.105 63.2058 211.297 63.4192C211.511 63.6325 211.639 63.8992 211.681 64.2192C211.724 64.5178 211.66 64.8272 211.489 65.1472C211.34 65.4672 211.073 65.7445 210.689 65.9792C209.943 66.4485 209.079 66.8005 208.097 67.0352C207.137 67.2485 206.241 67.3552 205.409 67.3552ZM217.089 67.2912C216.428 67.2912 215.916 67.1205 215.553 66.7792C215.212 66.4165 215.041 65.9045 215.041 65.2432V53.1472C215.041 52.4858 215.212 51.9845 215.553 51.6432C215.894 51.3018 216.374 51.1312 216.993 51.1312C217.612 51.1312 218.092 51.3018 218.433 51.6432C218.774 51.9845 218.945 52.4858 218.945 53.1472V55.1632H218.625C218.924 53.8832 219.51 52.9125 220.385 52.2512C221.26 51.5898 222.422 51.1952 223.873 51.0672C224.321 51.0245 224.673 51.1418 224.929 51.4192C225.206 51.6752 225.366 52.0805 225.409 52.6352C225.452 53.1685 225.324 53.6058 225.025 53.9472C224.748 54.2672 224.321 54.4592 223.745 54.5232L223.041 54.5872C221.74 54.7152 220.758 55.1205 220.097 55.8032C219.436 56.4645 219.105 57.4032 219.105 58.6192V65.2432C219.105 65.9045 218.934 66.4165 218.593 66.7792C218.252 67.1205 217.75 67.2912 217.089 67.2912Z" fill="#F8F9FA"/>
<path d="M18.9784 61.1846V22.3393C18.9784 21.4366 19.3296 20.5708 19.9547 19.9325C20.5798 19.2942 21.4276 18.9355 22.3116 18.9355H85.6419C86.5259 18.9355 87.3737 19.2942 87.9988 19.9325C88.6239 20.5708 88.9751 21.4366 88.9751 22.3393V87.0106C88.9751 87.9134 88.6239 88.7791 87.9988 89.4174C87.3737 90.0558 86.5259 90.4144 85.6419 90.4144H57.1433" stroke="#F8F9FA" stroke-width="3" stroke-linecap="round" stroke-linejoin="round"/>
<path d="M53.9767 64.8867L27.3114 92.1167L13.9787 78.5017" stroke="#F8F9FA" stroke-width="3" stroke-linecap="round" stroke-linejoin="round"/>
</svg>
