<svg width="163" height="43" viewBox="0 0 163 43" fill="none" xmlns="http://www.w3.org/2000/svg">
<path d="M4.04688 24.0832V9.46094C4.04688 9.12113 4.18186 8.79524 4.42214 8.55496C4.66243 8.31468 4.98832 8.17969 5.32812 8.17969H29.6719C30.0117 8.17969 30.3376 8.31468 30.5779 8.55496C30.8181 8.79524 30.9531 9.12113 30.9531 9.46094V33.8047C30.9531 34.1445 30.8181 34.4704 30.5779 34.7107C30.3376 34.951 30.0117 35.0859 29.6719 35.0859H18.7172" stroke="#F8F9FA" stroke-width="3" stroke-linecap="round" stroke-linejoin="round"/>
<path d="M17.5 25.4766L7.25 35.7266L2.125 30.6016" stroke="#F8F9FA" stroke-width="3" stroke-linecap="round" stroke-linejoin="round"/>
<path d="M42.064 32.8568C41.424 32.8568 40.9333 32.6648 40.592 32.2808C40.2507 31.8968 40.08 31.3635 40.08 30.6808V18.9368C40.08 18.2328 40.2507 17.6995 40.592 17.3368C40.9333 16.9528 41.424 16.7608 42.064 16.7608C42.704 16.7608 43.1947 16.9528 43.536 17.3368C43.8987 17.6995 44.08 18.2328 44.08 18.9368V30.6808C44.08 31.3635 43.9093 31.8968 43.568 32.2808C43.2267 32.6648 42.7253 32.8568 42.064 32.8568ZM42.064 13.7848C41.3173 13.7848 40.7307 13.6035 40.304 13.2408C39.8987 12.8568 39.696 12.3341 39.696 11.6728C39.696 10.9901 39.8987 10.4675 40.304 10.1048C40.7307 9.74214 41.3173 9.56081 42.064 9.56081C42.832 9.56081 43.4187 9.74214 43.824 10.1048C44.2293 10.4675 44.432 10.9901 44.432 11.6728C44.432 12.3341 44.2293 12.8568 43.824 13.2408C43.4187 13.6035 42.832 13.7848 42.064 13.7848ZM50.6683 32.8888C50.0069 32.8888 49.4949 32.7075 49.1323 32.3448C48.7909 31.9608 48.6203 31.4381 48.6203 30.7768V12.1528C48.6203 11.4701 48.8016 10.9581 49.1643 10.6168C49.5269 10.2541 50.0389 10.0728 50.7003 10.0728H58.4123C60.8869 10.0728 62.7963 10.6915 64.1403 11.9288C65.4843 13.1661 66.1562 14.8941 66.1562 17.1128C66.1562 19.3315 65.4843 21.0701 64.1403 22.3288C62.7963 23.5661 60.8869 24.1848 58.4123 24.1848H52.7163V30.7768C52.7163 31.4381 52.5456 31.9608 52.2043 32.3448C51.8629 32.7075 51.3509 32.8888 50.6683 32.8888ZM52.7163 20.9528H57.7723C59.2229 20.9528 60.3216 20.6328 61.0683 19.9928C61.8149 19.3315 62.1883 18.3715 62.1883 17.1128C62.1883 15.8541 61.8149 14.9048 61.0683 14.2648C60.3216 13.6248 59.2229 13.3048 57.7723 13.3048H52.7163V20.9528ZM74.4553 32.9528C72.6846 32.9528 71.3513 32.4515 70.4553 31.4488C69.5593 30.4248 69.1113 28.9315 69.1113 26.9688V11.8328C69.1113 11.1715 69.2819 10.6701 69.6233 10.3288C69.9646 9.98748 70.4553 9.81681 71.0953 9.81681C71.7353 9.81681 72.2259 9.98748 72.5673 10.3288C72.9299 10.6701 73.1113 11.1715 73.1113 11.8328V26.7768C73.1113 27.7581 73.3139 28.4835 73.7193 28.9528C74.1459 29.4221 74.7433 29.6568 75.5113 29.6568C75.6819 29.6568 75.8419 29.6568 75.9913 29.6568C76.1406 29.6355 76.2899 29.6141 76.4392 29.5928C76.7379 29.5501 76.9406 29.6355 77.0473 29.8488C77.1539 30.0408 77.2073 30.4461 77.2073 31.0648C77.2073 31.5981 77.1006 32.0141 76.8873 32.3128C76.6739 32.6115 76.3219 32.7928 75.8313 32.8568C75.6179 32.8781 75.3939 32.8995 75.1593 32.9208C74.9246 32.9421 74.6899 32.9528 74.4553 32.9528ZM84.482 32.9528C83.3513 32.9528 82.338 32.7395 81.442 32.3128C80.5673 31.8648 79.874 31.2675 79.362 30.5208C78.8713 29.7741 78.626 28.9315 78.626 27.9928C78.626 26.8408 78.9247 25.9341 79.522 25.2728C80.1193 24.5901 81.09 24.0995 82.434 23.8008C83.778 23.5021 85.5807 23.3528 87.842 23.3528H89.442V25.6568H87.874C86.5513 25.6568 85.4953 25.7208 84.706 25.8488C83.9167 25.9768 83.3513 26.2008 83.01 26.5208C82.69 26.8195 82.53 27.2461 82.53 27.8008C82.53 28.5048 82.7753 29.0808 83.266 29.5288C83.7567 29.9768 84.4393 30.2008 85.314 30.2008C86.018 30.2008 86.6367 30.0408 87.17 29.7208C87.7247 29.3795 88.162 28.9208 88.482 28.3448C88.802 27.7688 88.962 27.1075 88.962 26.3608V22.6808C88.962 21.6141 88.7273 20.8461 88.258 20.3768C87.7887 19.9075 86.9993 19.6728 85.89 19.6728C85.2713 19.6728 84.5993 19.7475 83.874 19.8968C83.17 20.0461 82.4233 20.3021 81.634 20.6648C81.2287 20.8568 80.866 20.9101 80.546 20.8248C80.2473 20.7395 80.0127 20.5688 79.842 20.3128C79.6713 20.0355 79.586 19.7368 79.586 19.4168C79.586 19.0968 79.6713 18.7875 79.842 18.4888C80.0127 18.1688 80.3007 17.9341 80.706 17.7848C81.6873 17.3795 82.626 17.0915 83.522 16.9208C84.4393 16.7501 85.2713 16.6648 86.018 16.6648C87.554 16.6648 88.8127 16.8995 89.794 17.3688C90.7967 17.8381 91.5433 18.5528 92.034 19.5128C92.5247 20.4515 92.77 21.6675 92.77 23.1608V30.8408C92.77 31.5021 92.61 32.0141 92.29 32.3768C91.97 32.7181 91.5113 32.8888 90.914 32.8888C90.3167 32.8888 89.8473 32.7181 89.506 32.3768C89.186 32.0141 89.026 31.5021 89.026 30.8408V29.3048H89.282C89.1327 30.0515 88.834 30.7021 88.386 31.2568C87.9593 31.7901 87.4153 32.2061 86.754 32.5048C86.0927 32.8035 85.3353 32.9528 84.482 32.9528ZM98.814 32.8888C98.174 32.8888 97.6833 32.7181 97.342 32.3768C97.0007 32.0141 96.83 31.5021 96.83 30.8408V18.7448C96.83 18.0835 97.0007 17.5821 97.342 17.2408C97.6833 16.8995 98.1633 16.7288 98.782 16.7288C99.4007 16.7288 99.8807 16.8995 100.222 17.2408C100.563 17.5821 100.734 18.0835 100.734 18.7448V20.9208L100.382 20.1208C100.851 18.9901 101.577 18.1368 102.558 17.5608C103.561 16.9635 104.691 16.6648 105.95 16.6648C107.209 16.6648 108.243 16.8995 109.054 17.3688C109.865 17.8381 110.473 18.5528 110.878 19.5128C111.283 20.4515 111.486 21.6461 111.486 23.0968V30.8408C111.486 31.5021 111.315 32.0141 110.974 32.3768C110.633 32.7181 110.142 32.8888 109.502 32.8888C108.862 32.8888 108.361 32.7181 107.998 32.3768C107.657 32.0141 107.486 31.5021 107.486 30.8408V23.2888C107.486 22.0728 107.251 21.1875 106.782 20.6328C106.334 20.0781 105.63 19.8008 104.67 19.8008C103.497 19.8008 102.558 20.1741 101.854 20.9208C101.171 21.6461 100.83 22.6168 100.83 23.8328V30.8408C100.83 32.2061 100.158 32.8888 98.814 32.8888ZM117.533 32.8888C116.893 32.8888 116.402 32.7181 116.061 32.3768C115.719 32.0141 115.549 31.5021 115.549 30.8408V18.7448C115.549 18.0835 115.719 17.5821 116.061 17.2408C116.402 16.8995 116.882 16.7288 117.501 16.7288C118.119 16.7288 118.599 16.8995 118.941 17.2408C119.282 17.5821 119.453 18.0835 119.453 18.7448V20.9208L119.101 20.1208C119.57 18.9901 120.295 18.1368 121.277 17.5608C122.279 16.9635 123.41 16.6648 124.669 16.6648C125.927 16.6648 126.962 16.8995 127.773 17.3688C128.583 17.8381 129.191 18.5528 129.597 19.5128C130.002 20.4515 130.205 21.6461 130.205 23.0968V30.8408C130.205 31.5021 130.034 32.0141 129.693 32.3768C129.351 32.7181 128.861 32.8888 128.221 32.8888C127.581 32.8888 127.079 32.7181 126.717 32.3768C126.375 32.0141 126.205 31.5021 126.205 30.8408V23.2888C126.205 22.0728 125.97 21.1875 125.501 20.6328C125.053 20.0781 124.349 19.8008 123.389 19.8008C122.215 19.8008 121.277 20.1741 120.573 20.9208C119.89 21.6461 119.549 22.6168 119.549 23.8328V30.8408C119.549 32.2061 118.877 32.8888 117.533 32.8888ZM141.98 32.9528C140.209 32.9528 138.684 32.6221 137.404 31.9608C136.124 31.2995 135.132 30.3608 134.428 29.1448C133.745 27.9288 133.404 26.4888 133.404 24.8248C133.404 23.2035 133.734 21.7848 134.396 20.5688C135.078 19.3528 136.006 18.4035 137.18 17.7208C138.374 17.0168 139.729 16.6648 141.244 16.6648C142.353 16.6648 143.345 16.8461 144.22 17.2088C145.116 17.5715 145.873 18.0941 146.492 18.7768C147.132 19.4595 147.612 20.2915 147.932 21.2728C148.273 22.2328 148.444 23.3208 148.444 24.5368C148.444 24.9208 148.305 25.2195 148.028 25.4328C147.772 25.6248 147.398 25.7208 146.908 25.7208H136.636V23.4168H145.628L145.116 23.8968C145.116 22.9155 144.966 22.0941 144.668 21.4328C144.39 20.7715 143.974 20.2701 143.42 19.9288C142.886 19.5661 142.214 19.3848 141.404 19.3848C140.508 19.3848 139.74 19.5981 139.1 20.0248C138.481 20.4301 138.001 21.0168 137.66 21.7848C137.34 22.5315 137.18 23.4275 137.18 24.4728V24.6968C137.18 26.4461 137.585 27.7581 138.396 28.6328C139.228 29.4861 140.444 29.9128 142.044 29.9128C142.598 29.9128 143.217 29.8488 143.9 29.7208C144.604 29.5715 145.265 29.3261 145.884 28.9848C146.332 28.7288 146.726 28.6221 147.068 28.6648C147.409 28.6861 147.676 28.8035 147.868 29.0168C148.081 29.2301 148.209 29.4968 148.252 29.8168C148.294 30.1155 148.23 30.4248 148.06 30.7448C147.91 31.0648 147.644 31.3421 147.26 31.5768C146.513 32.0461 145.649 32.3981 144.668 32.6328C143.708 32.8461 142.812 32.9528 141.98 32.9528ZM153.659 32.8888C152.998 32.8888 152.486 32.7181 152.123 32.3768C151.782 32.0141 151.611 31.5021 151.611 30.8408V18.7448C151.611 18.0835 151.782 17.5821 152.123 17.2408C152.465 16.8995 152.945 16.7288 153.563 16.7288C154.182 16.7288 154.662 16.8995 155.003 17.2408C155.345 17.5821 155.515 18.0835 155.515 18.7448V20.7608H155.195C155.494 19.4808 156.081 18.5101 156.955 17.8488C157.83 17.1875 158.993 16.7928 160.443 16.6648C160.891 16.6221 161.243 16.7395 161.499 17.0168C161.777 17.2728 161.937 17.6781 161.979 18.2328C162.022 18.7661 161.894 19.2035 161.595 19.5448C161.318 19.8648 160.891 20.0568 160.315 20.1208L159.611 20.1848C158.31 20.3128 157.329 20.7181 156.667 21.4008C156.006 22.0621 155.675 23.0008 155.675 24.2168V30.8408C155.675 31.5021 155.505 32.0141 155.163 32.3768C154.822 32.7181 154.321 32.8888 153.659 32.8888Z" fill="#F8F9FA"/>
</svg>
