<svg width="162" height="43" viewBox="0 0 162 43" fill="none" xmlns="http://www.w3.org/2000/svg">
<g opacity="0.55">
<path d="M4.375 24.0746V9.50694C4.375 9.1684 4.5067 8.84372 4.74112 8.60434C4.97554 8.36495 5.29348 8.23047 5.625 8.23047H29.375C29.7065 8.23047 30.0245 8.36495 30.2589 8.60434C30.4933 8.84372 30.625 9.1684 30.625 9.50694V33.7599C30.625 34.0984 30.4933 34.4231 30.2589 34.6625C30.0245 34.9018 29.7065 35.0363 29.375 35.0363H18.6875" stroke="black" stroke-width="3" stroke-linecap="round" stroke-linejoin="round"/>
<path d="M17.5 25.4629L7.5 35.6746L2.5 30.5688" stroke="black" stroke-width="3" stroke-linecap="round" stroke-linejoin="round"/>
</g>
<path d="M41.564 32.8568C40.924 32.8568 40.4333 32.6648 40.092 32.2808C39.7507 31.8968 39.58 31.3635 39.58 30.6808V18.9368C39.58 18.2328 39.7507 17.6995 40.092 17.3368C40.4333 16.9528 40.924 16.7608 41.564 16.7608C42.204 16.7608 42.6947 16.9528 43.036 17.3368C43.3987 17.6995 43.58 18.2328 43.58 18.9368V30.6808C43.58 31.3635 43.4093 31.8968 43.068 32.2808C42.7267 32.6648 42.2253 32.8568 41.564 32.8568ZM41.564 13.7848C40.8173 13.7848 40.2307 13.6035 39.804 13.2408C39.3987 12.8568 39.196 12.3341 39.196 11.6728C39.196 10.9901 39.3987 10.4675 39.804 10.1048C40.2307 9.74214 40.8173 9.56081 41.564 9.56081C42.332 9.56081 42.9187 9.74214 43.324 10.1048C43.7293 10.4675 43.932 10.9901 43.932 11.6728C43.932 12.3341 43.7293 12.8568 43.324 13.2408C42.9187 13.6035 42.332 13.7848 41.564 13.7848ZM50.1683 32.8888C49.5069 32.8888 48.9949 32.7075 48.6323 32.3448C48.2909 31.9608 48.1203 31.4381 48.1203 30.7768V12.1528C48.1203 11.4701 48.3016 10.9581 48.6643 10.6168C49.0269 10.2541 49.5389 10.0728 50.2003 10.0728H57.9123C60.3869 10.0728 62.2963 10.6915 63.6403 11.9288C64.9843 13.1661 65.6562 14.8941 65.6562 17.1128C65.6562 19.3315 64.9843 21.0701 63.6403 22.3288C62.2963 23.5661 60.3869 24.1848 57.9123 24.1848H52.2163V30.7768C52.2163 31.4381 52.0456 31.9608 51.7043 32.3448C51.3629 32.7075 50.8509 32.8888 50.1683 32.8888ZM52.2163 20.9528H57.2723C58.7229 20.9528 59.8216 20.6328 60.5683 19.9928C61.3149 19.3315 61.6883 18.3715 61.6883 17.1128C61.6883 15.8541 61.3149 14.9048 60.5683 14.2648C59.8216 13.6248 58.7229 13.3048 57.2723 13.3048H52.2163V20.9528ZM73.9553 32.9528C72.1846 32.9528 70.8513 32.4515 69.9553 31.4488C69.0593 30.4248 68.6113 28.9315 68.6113 26.9688V11.8328C68.6113 11.1715 68.7819 10.6701 69.1233 10.3288C69.4646 9.98748 69.9553 9.81681 70.5953 9.81681C71.2353 9.81681 71.7259 9.98748 72.0673 10.3288C72.4299 10.6701 72.6113 11.1715 72.6113 11.8328V26.7768C72.6113 27.7581 72.8139 28.4835 73.2193 28.9528C73.6459 29.4221 74.2433 29.6568 75.0113 29.6568C75.1819 29.6568 75.3419 29.6568 75.4913 29.6568C75.6406 29.6355 75.7899 29.6141 75.9392 29.5928C76.2379 29.5501 76.4406 29.6355 76.5473 29.8488C76.6539 30.0408 76.7073 30.4461 76.7073 31.0648C76.7073 31.5981 76.6006 32.0141 76.3873 32.3128C76.1739 32.6115 75.8219 32.7928 75.3313 32.8568C75.1179 32.8781 74.8939 32.8995 74.6593 32.9208C74.4246 32.9421 74.1899 32.9528 73.9553 32.9528ZM83.982 32.9528C82.8513 32.9528 81.838 32.7395 80.942 32.3128C80.0673 31.8648 79.374 31.2675 78.862 30.5208C78.3713 29.7741 78.126 28.9315 78.126 27.9928C78.126 26.8408 78.4247 25.9341 79.022 25.2728C79.6193 24.5901 80.59 24.0995 81.934 23.8008C83.278 23.5021 85.0807 23.3528 87.342 23.3528H88.942V25.6568H87.374C86.0513 25.6568 84.9953 25.7208 84.206 25.8488C83.4167 25.9768 82.8513 26.2008 82.51 26.5208C82.19 26.8195 82.03 27.2461 82.03 27.8008C82.03 28.5048 82.2753 29.0808 82.766 29.5288C83.2567 29.9768 83.9393 30.2008 84.814 30.2008C85.518 30.2008 86.1367 30.0408 86.67 29.7208C87.2247 29.3795 87.662 28.9208 87.982 28.3448C88.302 27.7688 88.462 27.1075 88.462 26.3608V22.6808C88.462 21.6141 88.2273 20.8461 87.758 20.3768C87.2887 19.9075 86.4993 19.6728 85.39 19.6728C84.7713 19.6728 84.0993 19.7475 83.374 19.8968C82.67 20.0461 81.9233 20.3021 81.134 20.6648C80.7287 20.8568 80.366 20.9101 80.046 20.8248C79.7473 20.7395 79.5127 20.5688 79.342 20.3128C79.1713 20.0355 79.086 19.7368 79.086 19.4168C79.086 19.0968 79.1713 18.7875 79.342 18.4888C79.5127 18.1688 79.8007 17.9341 80.206 17.7848C81.1873 17.3795 82.126 17.0915 83.022 16.9208C83.9393 16.7501 84.7713 16.6648 85.518 16.6648C87.054 16.6648 88.3127 16.8995 89.294 17.3688C90.2967 17.8381 91.0433 18.5528 91.534 19.5128C92.0247 20.4515 92.27 21.6675 92.27 23.1608V30.8408C92.27 31.5021 92.11 32.0141 91.79 32.3768C91.47 32.7181 91.0113 32.8888 90.414 32.8888C89.8167 32.8888 89.3473 32.7181 89.006 32.3768C88.686 32.0141 88.526 31.5021 88.526 30.8408V29.3048H88.782C88.6327 30.0515 88.334 30.7021 87.886 31.2568C87.4593 31.7901 86.9153 32.2061 86.254 32.5048C85.5927 32.8035 84.8353 32.9528 83.982 32.9528ZM98.314 32.8888C97.674 32.8888 97.1833 32.7181 96.842 32.3768C96.5007 32.0141 96.33 31.5021 96.33 30.8408V18.7448C96.33 18.0835 96.5007 17.5821 96.842 17.2408C97.1833 16.8995 97.6633 16.7288 98.282 16.7288C98.9007 16.7288 99.3807 16.8995 99.722 17.2408C100.063 17.5821 100.234 18.0835 100.234 18.7448V20.9208L99.882 20.1208C100.351 18.9901 101.077 18.1368 102.058 17.5608C103.061 16.9635 104.191 16.6648 105.45 16.6648C106.709 16.6648 107.743 16.8995 108.554 17.3688C109.365 17.8381 109.973 18.5528 110.378 19.5128C110.783 20.4515 110.986 21.6461 110.986 23.0968V30.8408C110.986 31.5021 110.815 32.0141 110.474 32.3768C110.133 32.7181 109.642 32.8888 109.002 32.8888C108.362 32.8888 107.861 32.7181 107.498 32.3768C107.157 32.0141 106.986 31.5021 106.986 30.8408V23.2888C106.986 22.0728 106.751 21.1875 106.282 20.6328C105.834 20.0781 105.13 19.8008 104.17 19.8008C102.997 19.8008 102.058 20.1741 101.354 20.9208C100.671 21.6461 100.33 22.6168 100.33 23.8328V30.8408C100.33 32.2061 99.658 32.8888 98.314 32.8888ZM117.033 32.8888C116.393 32.8888 115.902 32.7181 115.561 32.3768C115.219 32.0141 115.049 31.5021 115.049 30.8408V18.7448C115.049 18.0835 115.219 17.5821 115.561 17.2408C115.902 16.8995 116.382 16.7288 117.001 16.7288C117.619 16.7288 118.099 16.8995 118.441 17.2408C118.782 17.5821 118.953 18.0835 118.953 18.7448V20.9208L118.601 20.1208C119.07 18.9901 119.795 18.1368 120.777 17.5608C121.779 16.9635 122.91 16.6648 124.169 16.6648C125.427 16.6648 126.462 16.8995 127.273 17.3688C128.083 17.8381 128.691 18.5528 129.097 19.5128C129.502 20.4515 129.705 21.6461 129.705 23.0968V30.8408C129.705 31.5021 129.534 32.0141 129.193 32.3768C128.851 32.7181 128.361 32.8888 127.721 32.8888C127.081 32.8888 126.579 32.7181 126.217 32.3768C125.875 32.0141 125.705 31.5021 125.705 30.8408V23.2888C125.705 22.0728 125.47 21.1875 125.001 20.6328C124.553 20.0781 123.849 19.8008 122.889 19.8008C121.715 19.8008 120.777 20.1741 120.073 20.9208C119.39 21.6461 119.049 22.6168 119.049 23.8328V30.8408C119.049 32.2061 118.377 32.8888 117.033 32.8888ZM141.48 32.9528C139.709 32.9528 138.184 32.6221 136.904 31.9608C135.624 31.2995 134.632 30.3608 133.928 29.1448C133.245 27.9288 132.904 26.4888 132.904 24.8248C132.904 23.2035 133.234 21.7848 133.896 20.5688C134.578 19.3528 135.506 18.4035 136.68 17.7208C137.874 17.0168 139.229 16.6648 140.744 16.6648C141.853 16.6648 142.845 16.8461 143.72 17.2088C144.616 17.5715 145.373 18.0941 145.992 18.7768C146.632 19.4595 147.112 20.2915 147.432 21.2728C147.773 22.2328 147.944 23.3208 147.944 24.5368C147.944 24.9208 147.805 25.2195 147.528 25.4328C147.272 25.6248 146.898 25.7208 146.408 25.7208H136.136V23.4168H145.128L144.616 23.8968C144.616 22.9155 144.466 22.0941 144.168 21.4328C143.89 20.7715 143.474 20.2701 142.92 19.9288C142.386 19.5661 141.714 19.3848 140.904 19.3848C140.008 19.3848 139.24 19.5981 138.6 20.0248C137.981 20.4301 137.501 21.0168 137.16 21.7848C136.84 22.5315 136.68 23.4275 136.68 24.4728V24.6968C136.68 26.4461 137.085 27.7581 137.896 28.6328C138.728 29.4861 139.944 29.9128 141.544 29.9128C142.098 29.9128 142.717 29.8488 143.4 29.7208C144.104 29.5715 144.765 29.3261 145.384 28.9848C145.832 28.7288 146.226 28.6221 146.568 28.6648C146.909 28.6861 147.176 28.8035 147.368 29.0168C147.581 29.2301 147.709 29.4968 147.752 29.8168C147.794 30.1155 147.73 30.4248 147.56 30.7448C147.41 31.0648 147.144 31.3421 146.76 31.5768C146.013 32.0461 145.149 32.3981 144.168 32.6328C143.208 32.8461 142.312 32.9528 141.48 32.9528ZM153.159 32.8888C152.498 32.8888 151.986 32.7181 151.623 32.3768C151.282 32.0141 151.111 31.5021 151.111 30.8408V18.7448C151.111 18.0835 151.282 17.5821 151.623 17.2408C151.965 16.8995 152.445 16.7288 153.063 16.7288C153.682 16.7288 154.162 16.8995 154.503 17.2408C154.845 17.5821 155.015 18.0835 155.015 18.7448V20.7608H154.695C154.994 19.4808 155.581 18.5101 156.455 17.8488C157.33 17.1875 158.493 16.7928 159.943 16.6648C160.391 16.6221 160.743 16.7395 160.999 17.0168C161.277 17.2728 161.437 17.6781 161.479 18.2328C161.522 18.7661 161.394 19.2035 161.095 19.5448C160.818 19.8648 160.391 20.0568 159.815 20.1208L159.111 20.1848C157.81 20.3128 156.829 20.7181 156.167 21.4008C155.506 22.0621 155.175 23.0008 155.175 24.2168V30.8408C155.175 31.5021 155.005 32.0141 154.663 32.3768C154.322 32.7181 153.821 32.8888 153.159 32.8888Z" fill="black"/>
</svg>
