<svg xmlns="http://www.w3.org/2000/svg" viewBox="0 0 500 500"><g id="freepik--background-complete--inject-4"><rect y="382.4" width="500" height="0.25" style="fill:#ebebeb"></rect><rect x="416.78" y="398.49" width="33.12" height="0.25" style="fill:#ebebeb"></rect><rect x="322.53" y="401.21" width="8.69" height="0.25" style="fill:#ebebeb"></rect><rect x="396.59" y="389.21" width="19.19" height="0.25" style="fill:#ebebeb"></rect><rect x="52.46" y="390.89" width="43.19" height="0.25" style="fill:#ebebeb"></rect><rect x="104.56" y="390.89" width="6.33" height="0.25" style="fill:#ebebeb"></rect><rect x="131.47" y="395.11" width="93.68" height="0.25" style="fill:#ebebeb"></rect><path d="M237,337.8H43.91a5.71,5.71,0,0,1-5.7-5.71V60.66A5.71,5.71,0,0,1,43.91,55H237a5.71,5.71,0,0,1,5.71,5.71V332.09A5.71,5.71,0,0,1,237,337.8ZM43.91,55.2a5.46,5.46,0,0,0-5.45,5.46V332.09a5.46,5.46,0,0,0,5.45,5.46H237a5.47,5.47,0,0,0,5.46-5.46V60.66A5.47,5.47,0,0,0,237,55.2Z" style="fill:#ebebeb"></path><path d="M453.31,337.8H260.21a5.72,5.72,0,0,1-5.71-5.71V60.66A5.72,5.72,0,0,1,260.21,55h193.1A5.71,5.71,0,0,1,459,60.66V332.09A5.71,5.71,0,0,1,453.31,337.8ZM260.21,55.2a5.47,5.47,0,0,0-5.46,5.46V332.09a5.47,5.47,0,0,0,5.46,5.46h193.1a5.47,5.47,0,0,0,5.46-5.46V60.66a5.47,5.47,0,0,0-5.46-5.46Z" style="fill:#ebebeb"></path><path d="M268.42,367.29a1,1,0,1,1-.28-2.06l.15,0a1,1,0,0,1,1.18.87,1,1,0,0,1-.86,1.18Zm-5.14.66h-.19a1,1,0,0,1-.26-2.05h0l.19,0a1,1,0,0,1,1.13.93A1,1,0,0,1,263.28,368Zm10.42-1.55a1,1,0,0,1-.34-2l.17,0a1,1,0,0,1,1.21.82,1,1,0,0,1-.82,1.22l-.17,0Zm-15.75,2h-.22a1,1,0,0,1-.18-2.06l.19,0a1,1,0,0,1,.21,2.06Zm21-3.13a1,1,0,0,1-1.15-.78,1,1,0,0,1,.76-1.25l.18,0a1,1,0,1,1,.46,2l-.15,0Zm-26.33,3.4h-.28a1,1,0,1,1-.07-2.07h.17a1,1,0,0,1,.18,2.06ZM284.12,364a1,1,0,0,1-.42-2l.19-.05a1,1,0,0,1,1.26.73,1,1,0,0,1-.73,1.27l-.15,0A.8.8,0,0,1,284.12,364Zm-36.86,4.77h-.34a1,1,0,0,1-1-1.05,1,1,0,0,1,1.05-1h.16a1,1,0,0,1,.14,2.07Zm42-6.28a1,1,0,0,1-.44-2l.15,0a1,1,0,0,1,.63,2l-.18.05Zm-47.35,6.12h-.36a1,1,0,0,1,.08-2.07h.19a1,1,0,0,1,.09,2.06Zm52.42-7.84a1,1,0,0,1-1.12-.67,1.05,1.05,0,0,1,.62-1.33l.17-.06a1,1,0,1,1,.7,1.95l-.16.06A.8.8,0,0,1,294.33,360.76Zm-57.76,7.46a.65.65,0,0,1-.24,0l-.17,0a1,1,0,1,1,.19-2.06l.17,0a1,1,0,0,1,0,2.05Zm62.75-9.38a1,1,0,0,1-1.09-.62,1,1,0,0,1,.55-1.36l.18-.07a1,1,0,1,1,.77,1.92l-.14.06A.9.9,0,0,1,299.32,358.84Zm-68.07,8.8H231l-.17,0a1,1,0,0,1,.27-2.06l.17,0a1,1,0,0,1,0,2.06Zm73-10.92a1,1,0,0,1-.58-2l.17-.08a1,1,0,1,1,.85,1.89l-.14.07A1.11,1.11,0,0,1,304.24,356.72ZM226,366.84a1.08,1.08,0,0,1-.31,0l-.2,0a1,1,0,0,1,.38-2l.15,0a1,1,0,0,1,.86,1.19A1.05,1.05,0,0,1,226,366.84Zm83.11-12.43a1,1,0,0,1-1.08-.57,1,1,0,0,1,.48-1.39l.14-.07a1,1,0,0,1,1.39.45,1,1,0,0,1-.45,1.4l-.17.08A1.24,1.24,0,0,1,309.07,354.41Zm-88.38,11.41a1.15,1.15,0,0,1-.37,0l-.15,0a1,1,0,1,1,.41-2l.19,0a1,1,0,0,1-.08,2Zm93.1-13.92a1,1,0,0,1-1.05-.53,1.05,1.05,0,0,1,.42-1.41l.14-.07a1,1,0,1,1,1,1.8l-.16.1A1.15,1.15,0,0,1,313.79,351.9Zm-98.33,12.69a1.08,1.08,0,0,1-.4,0l-.15,0a1,1,0,1,1,.48-2l.19,0a1,1,0,0,1,.74,1.27A1,1,0,0,1,215.46,364.59Zm103-15.41a1.05,1.05,0,0,1-1-.47,1,1,0,0,1,.3-1.4l.15-.09A1,1,0,0,1,319,349l-.08,0A1.06,1.06,0,0,1,318.46,349.18Zm-108.17,14a1.11,1.11,0,0,1-.44,0l-.08,0a1.09,1.09,0,0,1-.74-1.31,1,1,0,0,1,1.25-.7l.17.05a1,1,0,0,1-.16,2Zm112.62-16.81a1,1,0,0,1-.72-1.88l.14-.1a1,1,0,1,1,1.15,1.72l-.14.1A1,1,0,0,1,322.91,346.34ZM205.19,361.51a1,1,0,0,1-.48-.05l-.16,0a1,1,0,1,1,.67-2l.17.06a1,1,0,0,1,.64,1.31A1.06,1.06,0,0,1,205.19,361.51Zm122.1-18.22a1,1,0,0,1-.75-1.86l.14-.1A1,1,0,1,1,327.9,343l-.14.1A.92.92,0,0,1,327.29,343.29ZM200.15,359.66a.9.9,0,0,1-.51-.06l-.16-.06a1,1,0,0,1,.75-1.93l.16.06a1,1,0,0,1-.24,2Zm131.4-19.59a1,1,0,0,1-.78-1.84l.13-.11a1,1,0,0,1,1.46.17,1,1,0,0,1-.17,1.45l-.14.12A1.16,1.16,0,0,1,331.55,340.07ZM195.2,357.62a1.06,1.06,0,0,1-.55-.08l-.16-.07a1,1,0,1,1,.83-1.9l.16.07a1,1,0,0,1-.28,2Zm140.48-20.94a1.07,1.07,0,0,1-.93-.35,1.05,1.05,0,0,1,.11-1.47l.13-.11a1,1,0,0,1,1.36,1.57l-.14.11A1,1,0,0,1,335.68,336.68ZM190.33,355.37a1,1,0,0,1-.59-.09l-.15-.08a1,1,0,1,1,.9-1.86l.16.08a1,1,0,0,1,.47,1.38A1,1,0,0,1,190.33,355.37Zm149.34-22.25a1,1,0,0,1-.9-.32,1,1,0,0,1,.05-1.46l.13-.12a1,1,0,1,1,1.41,1.51l-.12.12A1,1,0,0,1,339.67,333.12ZM185.56,352.94a1.07,1.07,0,0,1-.63-.11l-.15-.08a1,1,0,0,1,1-1.84l.16.09a1,1,0,0,1,.42,1.4A1,1,0,0,1,185.56,352.94Zm158-23.53a1.06,1.06,0,0,1-.88-.3,1,1,0,0,1,0-1.47l.11-.11a1,1,0,0,1,1.48,1.45l-.14.14A1,1,0,0,1,343.52,329.41ZM180.89,350.32a1,1,0,0,1-.67-.14l-.14-.08a1.05,1.05,0,0,1-.38-1.42,1,1,0,0,1,1.42-.37l.16.09a1,1,0,0,1-.39,1.92Zm166.33-24.78a1,1,0,0,1-.91-1.72l.12-.14a1.05,1.05,0,0,1,1.47-.05,1,1,0,0,1,.05,1.46l-.11.12A1,1,0,0,1,347.22,325.54Zm-170.89,22a1,1,0,0,1-.7-.15l-.15-.1a1,1,0,0,1,1.13-1.74l.14.09a1,1,0,0,1,.31,1.43A1,1,0,0,1,176.33,347.51Zm174.43-26a1,1,0,0,1-.81-.23,1,1,0,0,1-.13-1.46l.12-.14a1,1,0,1,1,1.58,1.35l-.11.12A1,1,0,0,1,350.76,321.53Zm-178.87,23a1.1,1.1,0,0,1-.74-.18l-.14-.1a1,1,0,1,1,1.19-1.7l.14.1a1,1,0,0,1,.25,1.45A1.05,1.05,0,0,1,171.89,344.53Zm182.25-27.14a1.06,1.06,0,0,1-.78-.21,1,1,0,0,1-.18-1.46l.11-.13a1,1,0,0,1,1.63,1.27l-.1.14A1.06,1.06,0,0,1,354.14,317.39Zm-186.58,24a1,1,0,0,1-.77-.2l-.13-.11a1,1,0,0,1-.2-1.45,1,1,0,0,1,1.45-.2l.14.11a1,1,0,0,1,.2,1.45A1.05,1.05,0,0,1,167.56,341.37Zm189.8-28.31a1,1,0,0,1-.72-.17,1,1,0,0,1-.27-1.41l.1-.14a1,1,0,1,1,1.69,1.2l-.05.07A1.12,1.12,0,0,1,357.36,313.06Zm-194,25a1,1,0,0,1-.8-.23l-.13-.1a1,1,0,0,1,1.31-1.61l.14.12a1,1,0,0,1-.52,1.82Zm197-29.34a1,1,0,0,1-.71-.16,1,1,0,0,1-.3-1.43l.1-.15a1,1,0,0,1,1.73,1.14l-.1.14A1,1,0,0,1,360.4,308.7ZM159.32,334.55a1,1,0,0,1-.84-.25l-.12-.11a1,1,0,0,1,1.37-1.56l.14.13a1,1,0,0,1,.07,1.46A1,1,0,0,1,159.32,334.55Zm203.94-30.37a1,1,0,0,1-1-1.57l.08-.14a1,1,0,1,1,1.78,1.07l-.09.15A1,1,0,0,1,363.26,304.18ZM155.4,330.91a1,1,0,0,1-.86-.29l-.12-.11a1,1,0,0,1,1.44-1.5l.13.13a1,1,0,0,1,0,1.46A1,1,0,0,1,155.4,330.91ZM366,299.55A1,1,0,0,1,364.9,298l.09-.16a1,1,0,0,1,1.81,1l-.08.15A1.07,1.07,0,0,1,366,299.55ZM151.64,327.11a1,1,0,0,1-.89-.31l-.13-.14a1,1,0,0,1,0-1.46,1,1,0,0,1,1.47.05l.1.11a1,1,0,0,1,0,1.47A1.05,1.05,0,0,1,151.64,327.11Zm216.81-32.3a1.14,1.14,0,0,1-.6-.1,1,1,0,0,1-.47-1.39l.08-.16a1,1,0,1,1,1.85.93l-.07.15A1.05,1.05,0,0,1,368.45,294.81ZM148,323.16a1,1,0,0,1-.92-.34l-.11-.12a1,1,0,0,1,.09-1.47,1,1,0,0,1,1.46.09l.12.14a1,1,0,0,1-.1,1.46A1,1,0,0,1,148,323.16ZM370.75,290a1,1,0,0,1-1.08-1.46l.07-.15a1,1,0,0,1,1.89.85l-.07.17A1.07,1.07,0,0,1,370.75,290ZM144.58,319.08a1,1,0,0,1-1-.38l-.1-.13a1,1,0,1,1,1.61-1.3l.11.13a1,1,0,0,1-.16,1.46A1,1,0,0,1,144.58,319.08Zm228.29-34a1.12,1.12,0,0,1-.54-.07,1,1,0,0,1-.56-1.35l.06-.16a1,1,0,0,1,1.35-.57,1,1,0,0,1,.57,1.34l-.07.17A1,1,0,0,1,372.87,285.05ZM141.3,314.86a1,1,0,0,1-1-.4l-.1-.14a1,1,0,0,1,.2-1.45,1,1,0,0,1,1.45.2l.11.15a1,1,0,0,1-.21,1.45A1,1,0,0,1,141.3,314.86ZM374.78,280a1,1,0,0,1-.49-.05,1,1,0,0,1-.62-1.33l.05-.16a1,1,0,0,1,2,.7l-.06.16A1,1,0,0,1,374.78,280ZM138.19,310.52a1,1,0,0,1-1-.44l-.1-.14a1,1,0,1,1,1.71-1.17l.09.14a1,1,0,0,1-.26,1.44A1.08,1.08,0,0,1,138.19,310.52ZM376.49,275a1,1,0,0,1-.45,0,1,1,0,0,1-.68-1.3l.06-.17a1,1,0,0,1,2,.62l-.05.17A1,1,0,0,1,376.49,275Zm-241.23,31.1a1,1,0,0,1-1-.48l-.09-.14a1,1,0,1,1,1.75-1.11l.09.15a1,1,0,0,1-.32,1.43A1.07,1.07,0,0,1,135.26,306.06ZM378,269.81a1.08,1.08,0,0,1-.4,0,1,1,0,0,1-.74-1.27l.05-.18a1,1,0,1,1,2,.55l-.05.16A1.05,1.05,0,0,1,378,269.81ZM132.51,301.48a1,1,0,0,1-1-.51l-.09-.15a1,1,0,0,1,1.8-1l.09.15a1,1,0,0,1-.38,1.41A.91.91,0,0,1,132.51,301.48ZM379.3,264.6a.92.92,0,0,1-.37,0,1,1,0,0,1-.78-1.24l0-.17a1,1,0,1,1,2,.46l0,.17A1,1,0,0,1,379.3,264.6ZM129.94,296.79a1,1,0,0,1-1.06-.55l-.08-.16a1,1,0,0,1,.44-1.39,1,1,0,0,1,1.4.44l.08.15a1,1,0,0,1-.78,1.51Zm250.45-37.44a1.22,1.22,0,0,1-.33,0,1,1,0,0,1-.83-1.21l0-.17a1,1,0,0,1,2,.37l0,.18A1.05,1.05,0,0,1,380.39,259.35ZM127.56,292a1,1,0,0,1-1.08-.59l-.07-.15a1,1,0,0,1,1.87-.9l.08.17a1,1,0,0,1-.5,1.38Zm253.7-37.93a1.31,1.31,0,0,1-.28,0,1,1,0,0,1-.89-1.17l0-.18a1,1,0,1,1,2.05.3l0,.16A1.06,1.06,0,0,1,381.26,254.07Zm-255.89,33a1,1,0,0,1-1.09-.62l-.07-.17a1,1,0,1,1,1.91-.79l.07.15a1,1,0,0,1-.55,1.36A1.34,1.34,0,0,1,125.37,287.11Zm256.55-38.36a.69.69,0,0,1-.25,0,1,1,0,0,1-.92-1.14l0-.17a1,1,0,0,1,1.13-.93,1,1,0,0,1,.93,1.14l0,.17A1,1,0,0,1,381.92,248.75ZM123.39,282.14a1,1,0,0,1-1.11-.67l-.06-.15a1,1,0,0,1,.6-1.34,1,1,0,0,1,1.33.6l.07.17a1,1,0,0,1-.61,1.33A.9.9,0,0,1,123.39,282.14Zm259-38.72h-.21a1,1,0,0,1-1-1.1v-.18a1,1,0,0,1,2.07.14v.16A1,1,0,0,1,382.37,243.42ZM121.6,277.09a1,1,0,0,1-1.12-.69l-.06-.18a1,1,0,0,1,.67-1.3,1,1,0,0,1,1.3.67l.06.15a1,1,0,0,1-.66,1.31A.58.58,0,0,1,121.6,277.09Zm261-39h-.17a1,1,0,0,1-1-1.06v-.17a1,1,0,0,1,2.07,0v.18A1,1,0,0,1,382.6,238.07ZM120,272a1,1,0,0,1-1.14-.74l0-.16a1,1,0,0,1,2-.59l0,.18a1,1,0,0,1-.72,1.28Zm262.59-39.26h-.12a1,1,0,0,1-1.06-1v-.18a1,1,0,0,1,2.07,0v.16A1,1,0,0,1,382.61,232.72Zm-264,34.09a1,1,0,0,1-1.15-.78l0-.18a1,1,0,0,1,2-.48l0,.16a1,1,0,0,1-.76,1.26Zm263.76-39.44h-.08a1,1,0,0,1-1.09-1v-.18a1,1,0,0,1,1-1.09,1,1,0,0,1,1.1,1v.18A1,1,0,0,1,382.41,227.37ZM117.48,261.58a1,1,0,0,1-1.16-.82l0-.16a1,1,0,0,1,.8-1.22,1,1,0,0,1,1.23.8l0,.17a1,1,0,0,1-.81,1.22ZM382,222h0a1,1,0,0,1-1.13-.88l0-.18a1,1,0,0,1,.93-1.13,1,1,0,0,1,1.14.92v.09A1.06,1.06,0,0,1,382,222ZM116.52,256.32a1,1,0,0,1-1.16-.86l0-.18a1,1,0,0,1,.86-1.18,1.06,1.06,0,0,1,1.18.86l0,.16a1,1,0,0,1-.85,1.2Zm264.86-39.6a1,1,0,0,1-1.16-.88l0-.18a1.16,1.16,0,0,1,.05-.49,1,1,0,0,1-.18-.45l0-.17a1,1,0,0,1,.88-1.18,1,1,0,0,1,1.17.88l0,.17a1,1,0,0,1-.05.5,1,1,0,0,1,.19.46l0,.17A1,1,0,0,1,381.38,216.72ZM115.77,251h0a1,1,0,0,1-1.15-.9l0-.17a1,1,0,0,1,.88-1.16h0a1,1,0,0,1,1.16.9l0,.18A1,1,0,0,1,115.77,251Zm264.58-40.71a1,1,0,0,1-1.16-.83l0-.18a1,1,0,0,1,.83-1.2,1,1,0,0,1,1.21.83l0,.16a1,1,0,0,1-.82,1.22ZM115.22,245.7h0a1,1,0,0,1-1.12-.94l0-.18a1,1,0,1,1,2.07-.16v.16A1,1,0,0,1,115.22,245.7Zm264-40.63a1,1,0,0,1-1.15-.79l0-.17a1,1,0,0,1,.78-1.24,1,1,0,0,1,1.24.78l0,.17a1,1,0,0,1-.78,1.24ZM114.89,240.35h-.1a1,1,0,0,1-1.08-1v-.16a1,1,0,1,1,2.07-.11v.19A1,1,0,0,1,114.89,240.35ZM378,199.84a1,1,0,0,1-1.11-.71l-.05-.17a1,1,0,1,1,2-.55l0,.08a1.08,1.08,0,0,1-.71,1.32ZM114.77,235h-.14a1,1,0,0,1-1-1v-.18a1,1,0,1,1,2.07,0V234A1,1,0,0,1,114.77,235Zm261.72-40.26a1,1,0,0,1-1.13-.72l-.05-.16a1,1,0,0,1,2-.62l0,.16a1,1,0,0,1-.68,1.3ZM114.86,229.65h-.18a1,1,0,0,1-1-1.07v-.18a1,1,0,0,1,1.08-1,1,1,0,0,1,1,1.07v.18A1,1,0,0,1,114.86,229.65Zm259.9-40a1,1,0,0,1-1.08-.64l-.06-.16a1,1,0,1,1,1.95-.71l0,.09a1.07,1.07,0,0,1-.61,1.36A1,1,0,0,1,374.76,189.63ZM115.17,224.31H115a1,1,0,0,1-1-1.11V223a1,1,0,0,1,2.07.18l0,.16A1,1,0,0,1,115.17,224.31Zm257.72-39.65a1,1,0,0,1-1.1-.64l-.06-.16a1,1,0,1,1,1.92-.78l.06.17a1,1,0,0,1-.57,1.34A.72.72,0,0,1,372.89,184.66ZM115.69,219a.76.76,0,0,1-.26,0,1,1,0,0,1-.91-1.15l0-.17a1,1,0,1,1,2.06.25l0,.17A1,1,0,0,1,115.69,219Zm255.06-39.27a1,1,0,0,1-1-.57l-.07-.16a1,1,0,1,1,1.88-.86l0,.09a1.06,1.06,0,0,1-.5,1.4A1.12,1.12,0,0,1,370.75,179.71Zm-254.32,34a1,1,0,0,1-.3,0,1,1,0,0,1-.86-1.18v-.1a1.08,1.08,0,0,1,1.19-.9,1,1,0,0,1,.87,1.14l0,.17A1,1,0,0,1,116.43,213.68ZM368.5,174.9a1,1,0,0,1-1.07-.56l-.08-.15a1,1,0,0,1,1.85-.94l.08.16a1,1,0,0,1-.46,1.39A.92.92,0,0,1,368.5,174.9ZM117.38,208.4a1.29,1.29,0,0,1-.34,0,1,1,0,0,1-.81-1.22l0-.18a1,1,0,0,1,2,.42l0,.17A1,1,0,0,1,117.38,208.4ZM366,170.17a1.06,1.06,0,0,1-1.05-.52l-.09-.16a1,1,0,0,1,1.82-1l.08.14a1,1,0,0,1-.4,1.41A1,1,0,0,1,366,170.17Zm-247.46,33a1,1,0,0,1-1.15-1.27l0-.18a1,1,0,0,1,2,.5l0,.17A1,1,0,0,1,118.55,203.16Zm244.79-37.62a1,1,0,0,1-1-.48l-.09-.16a1,1,0,1,1,1.77-1.06l.09.13a1,1,0,0,1-.34,1.43A.88.88,0,0,1,363.34,165.54ZM119.92,198a1,1,0,0,1-.42,0,1,1,0,0,1-.72-1.28l0-.08a1.07,1.07,0,0,1,1.29-.75,1,1,0,0,1,.73,1.23l0,.17A1,1,0,0,1,119.92,198ZM360.48,161a1,1,0,0,1-1-.45l-.1-.15a1,1,0,0,1,1.73-1.14l.09.14a1,1,0,0,1-.28,1.44A1.07,1.07,0,0,1,360.48,161Zm-239,31.82a1,1,0,0,1-.47,0,1,1,0,0,1-.65-1.31l.05-.15a1,1,0,1,1,2,.64l-.05.17A1,1,0,0,1,121.5,192.85Zm236-36.21a1,1,0,0,1-1-.42l-.1-.14a1,1,0,1,1,1.67-1.22l.11.15a1,1,0,0,1-.24,1.44A1.15,1.15,0,0,1,357.45,156.64ZM123.29,187.79a1,1,0,0,1-.51,0,1,1,0,0,1-.6-1.34l.06-.16a1,1,0,1,1,1.94.72l-.06.17A1,1,0,0,1,123.29,187.79Zm231-35.42a1.07,1.07,0,0,1-1-.39l-.1-.14a1,1,0,0,1,1.62-1.28l.11.14a1,1,0,0,1-.17,1.46A1.22,1.22,0,0,1,354.24,152.37Zm-229,30.44a1,1,0,0,1-.55-.07,1,1,0,0,1-.55-1.36l.07-.15a1,1,0,1,1,1.91.8l-.07.16A1,1,0,0,1,125.28,182.81Zm225.55-34.6a1,1,0,0,1-.9-.34l-.11-.13a1,1,0,0,1,1.57-1.35l.09.1a1.06,1.06,0,0,1-.1,1.48A1,1,0,0,1,350.83,148.21ZM127.46,177.92a1,1,0,0,1-.58-.09,1,1,0,0,1-.49-1.38l.07-.15a1,1,0,1,1,1.87.88l-.07.16A1,1,0,0,1,127.46,177.92Zm219.86-33.7a1,1,0,0,1-.9-.32l-.12-.13a1,1,0,0,1,.06-1.47,1,1,0,0,1,1.46.07l.11.11a1,1,0,0,1-.61,1.74Zm-217.48,28.9a1,1,0,0,1-1.06-1.5l.08-.17a1,1,0,1,1,1.83,1l-.07.15A1,1,0,0,1,129.84,173.12Zm213.78-32.76a1,1,0,0,1-.87-.3l-.13-.12a1,1,0,0,1,1.47-1.46l.12.12a1,1,0,0,1,0,1.46A1,1,0,0,1,343.62,140.36ZM132.41,168.42a1,1,0,0,1-.66-.13,1,1,0,0,1-.38-1.41l.08-.16a1.05,1.05,0,0,1,1.42-.38,1,1,0,0,1,.38,1.42l-.09.15A1,1,0,0,1,132.41,168.42Zm207.36-31.77a1,1,0,0,1-.85-.27l-.12-.11a1,1,0,0,1-.06-1.47,1,1,0,0,1,1.46-.06l.14.12a1,1,0,0,1-.57,1.79ZM135.16,163.82a1,1,0,0,1-.7-.15,1,1,0,0,1-.32-1.42l.09-.15a1,1,0,1,1,1.76,1.1l-.1.15A1,1,0,0,1,135.16,163.82Zm200.57-30.74a1,1,0,0,1-.77-.23l-.13-.11a1,1,0,0,1,1.34-1.58l.07.06a1.08,1.08,0,0,1,.15,1.49A1.11,1.11,0,0,1,335.73,133.08ZM138.09,159.34a1,1,0,0,1-.73-.17,1,1,0,0,1-.27-1.44l.1-.14a1,1,0,0,1,1.71,1.17l-.1.14A1,1,0,0,1,138.09,159.34Zm193.55-29.65a1,1,0,0,1-.78-.21l-.14-.11a1,1,0,1,1,1.28-1.62l.14.1a1,1,0,0,1,.17,1.46A1,1,0,0,1,331.64,129.69ZM141.2,155a1,1,0,0,1-.76-.19,1,1,0,0,1-.22-1.45l.11-.15a1,1,0,0,1,1.45-.2,1,1,0,0,1,.2,1.45l-.09.13A1,1,0,0,1,141.2,155Zm186.17-28.52a1,1,0,0,1-.75-.19l-.14-.09a1,1,0,0,1,1.21-1.69l.16.11a1,1,0,0,1,.21,1.45A1,1,0,0,1,327.37,126.46Zm-182.9,24.29a1,1,0,0,1-.79-.22,1,1,0,0,1-.16-1.46l.11-.13a1,1,0,1,1,1.61,1.3l-.1.14A1.06,1.06,0,0,1,144.47,150.75ZM323,123.4a1,1,0,0,1-.72-.16l-.14-.1a1,1,0,0,1-.29-1.43,1,1,0,0,1,1.44-.29l.15.1a1,1,0,0,1-.44,1.88ZM147.91,146.65A1,1,0,0,1,147,145l.12-.14a1,1,0,1,1,1.55,1.37l-.11.13A1,1,0,0,1,147.91,146.65Zm170.56-26.13a1.06,1.06,0,0,1-.69-.14l-.14-.09a1,1,0,1,1,1.07-1.77l.16.1a1,1,0,0,1,.34,1.42A1.05,1.05,0,0,1,318.47,120.52Zm-167,22.18a1,1,0,0,1-.85-.27,1,1,0,0,1,0-1.47l.1-.11a1.05,1.05,0,0,1,1.47,0,1,1,0,0,1,.05,1.46l-.11.12A1,1,0,0,1,151.51,142.7Zm162.33-24.88a1.07,1.07,0,0,1-.65-.12l-.14-.08a1,1,0,0,1-.41-1.41,1,1,0,0,1,1.41-.41l.16.09a1,1,0,0,1,.39,1.41A1,1,0,0,1,313.84,117.82ZM155.27,138.89a1,1,0,0,1-.89-.31,1,1,0,0,1,0-1.46l.12-.12a1,1,0,0,1,1.47,0,1,1,0,0,1,0,1.46l-.12.12A1.07,1.07,0,0,1,155.27,138.89Zm153.84-23.58a1.11,1.11,0,0,1-.61-.11l-.15-.08a1,1,0,1,1,.93-1.84l.16.08a1,1,0,0,1,.45,1.39A1,1,0,0,1,309.11,115.31ZM159.17,135.23a1,1,0,0,1-.84-1.8l.12-.1a1,1,0,0,1,1.47.06,1,1,0,0,1-.07,1.46l-.13.13A1.1,1.1,0,0,1,159.17,135.23ZM304.28,113a1,1,0,0,1-.57-.09l-.15-.06a1,1,0,0,1-.52-1.37,1,1,0,0,1,1.37-.52l.17.07a1.05,1.05,0,0,1,.51,1.38A1.07,1.07,0,0,1,304.28,113ZM163.21,131.73a1,1,0,0,1-.94-.36,1,1,0,0,1,.14-1.46l.12-.11a1,1,0,0,1,1.34,1.59l-.14.12A1.08,1.08,0,0,1,163.21,131.73Zm136.13-20.88a1,1,0,0,1-.5-.07l-.1,0a1.06,1.06,0,0,1-.6-1.36,1,1,0,0,1,1.31-.58l.07,0a1.09,1.09,0,0,1,.62,1.37A1,1,0,0,1,299.34,110.85ZM167.39,128.4a1,1,0,0,1-1-.4,1,1,0,0,1,.2-1.45l.13-.1a1,1,0,0,1,1.26,1.64l-.14.11A1,1,0,0,1,167.39,128.4Zm127-19.48a1,1,0,0,1-.47-.06l-.16,0a1,1,0,0,1,.69-2l.12.05a1,1,0,0,1,.64,1.33A1,1,0,0,1,294.35,108.92ZM171.69,125.24a1,1,0,0,1-.74-1.87l.14-.1a1,1,0,1,1,1.2,1.69l-.14.1A1,1,0,0,1,171.69,125.24Zm117.6-18a1,1,0,0,1-.46,0l-.15,0a1,1,0,0,1,.62-2l.17,0a1,1,0,0,1,.67,1.31A1.07,1.07,0,0,1,289.29,107.19ZM176.12,122.25a1,1,0,0,1-1-.46,1,1,0,0,1,.31-1.43l.14-.09a1,1,0,0,1,1.13,1.73l-.15.1A1.06,1.06,0,0,1,176.12,122.25Zm108-16.59a1,1,0,0,1-.42,0l-.16,0a1,1,0,0,1,.54-2l.18,0a1,1,0,0,1-.14,2ZM180.66,119.45a1,1,0,0,1-1-.5,1,1,0,0,1,.36-1.42l.15-.09a1,1,0,0,1,1.06,1.79l-.15.09A1.2,1.2,0,0,1,180.66,119.45ZM279,104.34a1.15,1.15,0,0,1-.37,0l-.18,0a1,1,0,0,1-.77-1.25,1,1,0,0,1,1.24-.77l.17,0a1,1,0,0,1-.09,2Zm-93.64,12.49a1,1,0,0,1-1.05-.53,1,1,0,0,1,.42-1.41l.15-.08a1,1,0,0,1,1.41.42,1,1,0,0,1-.43,1.4l-.15.08A.91.91,0,0,1,185.31,116.83Zm88.39-13.6a.91.91,0,0,1-.33,0l-.18,0a1,1,0,0,1,.39-2l.16,0a1,1,0,0,1,0,2Zm-83.63,11.16a1,1,0,0,1-.59-2l.16-.08a1,1,0,1,1,.9,1.86l-.15.08A.9.9,0,0,1,190.07,114.39Zm78.35-12a.71.71,0,0,1-.29,0l-.17,0a1,1,0,0,1-.88-1.18,1,1,0,0,1,1.18-.87l.17,0a1,1,0,0,1,0,2Zm-73.49,9.81a1,1,0,0,1-1.09-.61,1,1,0,0,1,.54-1.37l.16-.07a1,1,0,1,1,.82,1.9l-.15.07A.9.9,0,0,1,194.93,112.15Zm68.18-10.49a1,1,0,0,1-.24,0l-.19,0a1,1,0,0,1,.23-2.06l.16,0a1,1,0,0,1,0,2Zm-63.23,8.44a1,1,0,0,1-.52-2l.17-.07a1,1,0,1,1,.74,1.94l-.15.06A1.05,1.05,0,0,1,199.88,110.1Zm57.9-8.9h-.21l-.17,0a1,1,0,1,1,.13-2.06h.17a1,1,0,0,1,.08,2.06Zm-52.88,7a1,1,0,0,1-.48-2l.16-.06a1,1,0,0,1,.69,2l-.17.06A.71.71,0,0,1,204.9,108.25Zm47.53-7.3h-.34a1,1,0,0,1-1-1.06,1,1,0,0,1,1.07-1h.16a1,1,0,0,1,.12,2.06ZM210,106.61a1,1,0,0,1-.45-2l.18-.06a1,1,0,0,1,.58,2l-.15,0Zm37.08-5.7h-.3a1,1,0,0,1,0-2.08h.18a1,1,0,0,1,.15,2.06Zm-31.93,4.26a1,1,0,0,1-1.14-.76,1,1,0,0,1,.74-1.27l.17,0a1,1,0,0,1,.52,2l-.17,0Zm26.58-4.08h-.25a1,1,0,1,1-.12-2.07h.09a1.06,1.06,0,0,1,1.13,1A1,1,0,0,1,241.73,101.09Zm-21.37,2.85a1,1,0,0,1-.36-2l.18,0a1,1,0,0,1,1.22.8,1,1,0,0,1-.8,1.22l-.16,0Zm16-2.46h-.21a1,1,0,0,1-1.13-.93,1,1,0,0,1,.93-1.13l.18,0a1,1,0,0,1,.23,2.06Zm-10.78,1.44a1,1,0,0,1-.32-2l.18,0a1,1,0,0,1,1.19.85,1,1,0,0,1-.84,1.2l-.17,0Zm5.47-.84h0l-.17,0a1,1,0,0,1-.28-2.06l.18,0a1,1,0,0,1,.28,2Z" style="fill:#e6e6e6"></path><circle cx="111.68" cy="322.07" r="49.61" transform="translate(-227.56 288.55) rotate(-65.23)" style="fill:#ebebeb"></circle><path d="M118.5,366a44.43,44.43,0,1,1,37.82-37.24A44.35,44.35,0,0,1,118.5,366Z" style="fill:#f5f5f5"></path><path d="M106.46,362.55h-.3l-.17,0a1.74,1.74,0,0,1-1.43-2,1.76,1.76,0,0,1,2-1.43l.16,0a1.75,1.75,0,0,1-.28,3.47Zm0-1.67h0v0Zm12.21,1.64a1.77,1.77,0,0,1-1.76-1.45,1.72,1.72,0,0,1,1.38-2l.11,0a1.79,1.79,0,0,1,2,1.44,1.7,1.7,0,0,1-1.38,2l-.1,0Zm-23.91-3.69a1.75,1.75,0,0,1-.79-.2l-.13-.06a1.75,1.75,0,0,1,1.53-3.15l.19.1a1.75,1.75,0,0,1-.8,3.31Zm35.51-.1a1.75,1.75,0,0,1-.8-3.31l.15-.07a1.75,1.75,0,1,1,1.6,3.11l-.16.08A1.7,1.7,0,0,1,130.25,358.73Zm-45.48-7.08a1.73,1.73,0,0,1-1.24-.52l-.1-.1a1.75,1.75,0,0,1,2.44-2.51l.14.14a1.75,1.75,0,0,1,0,2.47A1.72,1.72,0,0,1,84.77,351.65Zm55.42-.14a1.75,1.75,0,0,1-1.24-3l.13-.12a1.75,1.75,0,0,1,2.47,2.48l-.12.12A1.77,1.77,0,0,1,140.19,351.51ZM77.5,341.74a1.75,1.75,0,0,1-1.56-.95l-.07-.15A1.75,1.75,0,0,1,79,339l.09.17a1.75,1.75,0,0,1-.77,2.35A1.7,1.7,0,0,1,77.5,341.74Zm69.92-.16a1.69,1.69,0,0,1-.78-.19,1.74,1.74,0,0,1-.78-2.35l.08-.16a1.75,1.75,0,1,1,3.12,1.58l-.07.15A1.77,1.77,0,0,1,147.42,341.58Zm-73.79-11.5a1.76,1.76,0,0,1-1.73-1.47l0-.16a1.75,1.75,0,0,1,3.45-.57l0,.18a1.75,1.75,0,0,1-1.45,2A1.32,1.32,0,0,1,73.63,330.08Zm77.59-.19a1.43,1.43,0,0,1-.29,0,1.74,1.74,0,0,1-1.44-2l0-.28a1.75,1.75,0,1,1,3.46.51l-.05.34A1.75,1.75,0,0,1,151.22,329.89ZM73.57,317.76a1.06,1.06,0,0,1-.25,0,1.71,1.71,0,0,1-1.48-1.95s0-.1,0-.12v-.07a1.75,1.75,0,0,1,3.46.55l0,.1A1.78,1.78,0,0,1,73.57,317.76Zm77.64-.3a1.76,1.76,0,0,1-1.73-1.47l0-.17a1.75,1.75,0,0,1,3.46-.56l0,.17a1.76,1.76,0,0,1-1.45,2ZM77.29,306.08a1.68,1.68,0,0,1-.78-.18,1.75,1.75,0,0,1-.78-2.35l0-.08a1.8,1.8,0,0,1,2.37-.82,1.72,1.72,0,0,1,.8,2.31l-.08.16A1.76,1.76,0,0,1,77.29,306.08Zm70-.32a1.68,1.68,0,0,1-1.51-.91l-.08-.16a1.75,1.75,0,1,1,3.11-1.61l0,.08a1.76,1.76,0,0,1-1.56,2.6Zm-62.87-9.65a1.75,1.75,0,0,1-1.23-.52,1.73,1.73,0,0,1,0-2.47l.1-.11a1.75,1.75,0,0,1,2.51,2.44l-.14.14A1.76,1.76,0,0,1,84.46,296.11Zm55.67-.24a1.79,1.79,0,0,1-1.23-.5l-.13-.13a1.75,1.75,0,1,1,2.47-2.48l.11.11a1.75,1.75,0,0,1-1.22,3Zm-45.77-7.05a1.75,1.75,0,0,1-.8-3.3l.13-.07a1.75,1.75,0,0,1,1.65,3.09l-.18.09A1.77,1.77,0,0,1,94.36,288.82Zm35.81-.16a1.75,1.75,0,0,1-.76-.17l-.16-.08a1.75,1.75,0,0,1,1.56-3.14l0,0,.11,0a1.75,1.75,0,0,1-.77,3.32ZM106,285a1.75,1.75,0,0,1-.29-3.48l.2,0a1.75,1.75,0,1,1,.53,3.46l-.14,0Zm12.46-.05h-.22l-.14,0a1.78,1.78,0,0,1-1.52-2,1.74,1.74,0,0,1,2-1.5l.15,0a1.77,1.77,0,0,1,1.47,2A1.73,1.73,0,0,1,118.47,284.9Z" style="fill:#e0e0e0"></path><path d="M135.68,340.33a.71.71,0,0,1-.44-.15L112,322.55a.73.73,0,0,1,.88-1.16L136.12,339a.73.73,0,0,1-.44,1.31Z" style="fill:#ebebeb"></path><path d="M112.41,323.92a2,2,0,0,1-1.65-.92L95.18,298a1.95,1.95,0,1,1,3.3-2.06l14.68,23.53,20.92-9.45a1.94,1.94,0,1,1,1.61,3.54l-22.48,10.15A1.9,1.9,0,0,1,112.41,323.92Z" style="fill:#e0e0e0"></path><circle cx="114.03" cy="170.19" r="36.99" transform="translate(-80.32 234.97) rotate(-74.61)" style="fill:#e6e6e6"></circle><circle cx="114.03" cy="170.19" r="32.55" transform="translate(-67.32 265.48) rotate(-83.89)" style="fill:#ebebeb"></circle><path d="M116,184.47a14.4,14.4,0,0,1-8.36-27.17,14.14,14.14,0,0,1,4.44-1.38A14.41,14.41,0,0,1,116,184.47Z" style="fill:#e0e0e0"></path><path d="M106.19,184.74a1.76,1.76,0,0,1-1.15-.23,1.8,1.8,0,0,1-.64-2.46l7.72-13.1a1.79,1.79,0,0,1,2.25-.74l16.72,7a1.8,1.8,0,1,1-1.4,3.31l-15.27-6.44-6.92,11.74A1.77,1.77,0,0,1,106.19,184.74Z" style="fill:#f5f5f5"></path><path d="M114.41,172.94a2.77,2.77,0,0,1-1.61-5.23,2.88,2.88,0,0,1,.85-.26,2.77,2.77,0,0,1,1.61,5.22A2.63,2.63,0,0,1,114.41,172.94Z" style="fill:#ebebeb"></path><circle cx="279.27" cy="358.88" r="37.9" transform="matrix(1, -0.07, 0.07, 1, -25.27, 21.18)" style="fill:#e0e0e0"></circle><circle cx="279.27" cy="358.88" r="33.35" transform="translate(-107.06 598.75) rotate(-83.95)" style="fill:#f5f5f5"></circle><path d="M279.27,361.11a2.26,2.26,0,0,1-1.66-.74l-15-16.75a2.23,2.23,0,0,1,3.32-3l13.7,15.3,14-9.49a2.23,2.23,0,0,1,2.51,3.69l-15.59,10.58A2.2,2.2,0,0,1,279.27,361.11Z" style="fill:#e0e0e0"></path><circle cx="213.73" cy="98.24" r="37.57" transform="translate(104.6 306.61) rotate(-87.04)" style="fill:#f5f5f5"></circle><path d="M214.13,132.76h-.35a1.47,1.47,0,0,1,0-2.94h.14a1.47,1.47,0,0,1,.21,2.93Zm10.06-1.63a1.47,1.47,0,0,1-.65-2.85l.12-.05a1.48,1.48,0,0,1,.94,2.8l-.15.05Zm-20.29.07a1.41,1.41,0,0,1-.64,0l-.15-.05a1.47,1.47,0,1,1,.91-2.8l.12,0a1.47,1.47,0,0,1-.24,2.86Zm29.5-4.78a1.47,1.47,0,0,1-1.06-2.65l.93,1.14-.82-1.23a1.48,1.48,0,1,1,1.73,2.39l-.86-1.2.85,1.2-.11.09A1.55,1.55,0,0,1,233.4,126.42Zm-38.74.15a1.43,1.43,0,0,1-1-.26l-.13-.09a1.47,1.47,0,0,1,1.72-2.39l.11.08a1.47,1.47,0,0,1-.65,2.66Zm46.05-7.46a1.48,1.48,0,0,1-1.4-2.32l.08-.11a1.47,1.47,0,1,1,2.4,1.7l-.09.13A1.51,1.51,0,0,1,240.71,119.11Zm-53.4.19a1.48,1.48,0,0,1-1.39-.59l0-.06a1.5,1.5,0,0,1,.29-2.08,1.44,1.44,0,0,1,2,.27,1.13,1.13,0,0,0,.1.13A1.47,1.47,0,0,1,188,119,1.4,1.4,0,0,1,187.31,119.3Zm58.08-9.41a1.49,1.49,0,0,1-.66-.06,1.47,1.47,0,0,1-.94-1.85l0-.13a1.47,1.47,0,0,1,2.81.88l0,.15A1.46,1.46,0,0,1,245.39,109.89Zm-62.84.23a1.47,1.47,0,0,1-1.6-1l0-.15a1.47,1.47,0,1,1,2.8-.91l0,.12a1.48,1.48,0,0,1-.92,1.87A1.31,1.31,0,0,1,182.55,110.12ZM247,99.67l-.2,0a1.49,1.49,0,0,1-1.48-1.47v-.15a1.48,1.48,0,0,1,1.47-1.47,1.46,1.46,0,0,1,1.48,1.47v.14A1.47,1.47,0,0,1,247,99.67Zm-66.13.25h-.2a1.48,1.48,0,0,1-1.48-1.47v-.15a1.48,1.48,0,0,1,2.95,0v.15A1.48,1.48,0,0,1,180.87,99.92Zm64.51-10.46a1.46,1.46,0,0,1-1.6-1l0-.13a1.47,1.47,0,0,1,2.79-.94l.05.16a1.47,1.47,0,0,1-.94,1.85A1.22,1.22,0,0,1,245.38,89.46Zm-63,.23a1.4,1.4,0,0,1-.64,0,1.48,1.48,0,0,1-1-1.85l.05-.16a1.48,1.48,0,0,1,2.8.93l0,.11A1.46,1.46,0,0,1,182.42,89.69Zm58.26-9.44a1.47,1.47,0,0,1-1.39-.58l-.08-.11a1.49,1.49,0,0,1,.31-2.06,1.46,1.46,0,0,1,2,.28l.06.08,0,.06a1.47,1.47,0,0,1-1,2.33Zm-53.64.2a1.51,1.51,0,0,1-1.06-.26,1.48,1.48,0,0,1-.34-2.06l.1-.13a1.47,1.47,0,1,1,2.37,1.74l-.07.1A1.49,1.49,0,0,1,187,80.45Zm46.33-7.51a1.48,1.48,0,0,1-1.08-.28l-.1-.07a1.47,1.47,0,0,1,1.71-2.4l.14.1a1.48,1.48,0,0,1,.31,2.06A1.49,1.49,0,0,1,233.37,72.94Zm-39,.09a1.47,1.47,0,0,1-1.4-.56,1.42,1.42,0,0,1,.27-2l.22-.17a1.47,1.47,0,1,1,1.72,2.39l-.11.08A1.42,1.42,0,0,1,194.36,73Zm29.79-4.78a1.46,1.46,0,0,1-.65-.06l-.14,0a1.48,1.48,0,0,1,.91-2.81l.14,0a1.47,1.47,0,0,1-.26,2.86Zm-20.57,0a1.47,1.47,0,0,1-1.6-1,1.49,1.49,0,0,1,1-1.86l.14,0a1.47,1.47,0,0,1,.91,2.8l-.14,0A1.22,1.22,0,0,1,203.58,68.28Zm10.36-1.65h-.34a1.47,1.47,0,1,1,0-2.94h.16a1.47,1.47,0,0,1,1.46,1.48A1.48,1.48,0,0,1,213.94,66.63Z" style="fill:#e0e0e0"></path><path d="M213.81,98.78a.57.57,0,0,1-.63-.47l-3-21.9a.54.54,0,0,1,.47-.62.55.55,0,0,1,.62.47l3,21.9A.55.55,0,0,1,213.81,98.78Z" style="fill:#ebebeb"></path><path d="M208.9,121.41a1.36,1.36,0,0,1-.53,0,1.47,1.47,0,0,1-1.1-1.77L212,99.16,195.74,93a1.47,1.47,0,1,1,1-2.75l17.47,6.6a1.48,1.48,0,0,1,.92,1.71l-5,21.72A1.48,1.48,0,0,1,208.9,121.41Z" style="fill:#e0e0e0"></path><path d="M376.14,166.64a40.77,40.77,0,0,1-44.38-28.72A40.54,40.54,0,0,1,359.2,87.59,40.45,40.45,0,0,1,409.54,115a40.54,40.54,0,0,1-27.44,50.33A39.56,39.56,0,0,1,376.14,166.64Z" style="fill:#e6e6e6"></path><path d="M383.12,117.24l-11.28,10.83.8-1.66-1.38,20.47-2.6-20.35v0a1.63,1.63,0,0,1,.81-1.61Z" style="fill:#fafafa"></path><path d="M373.74,125.25a2.89,2.89,0,1,1-3.8-1.53A2.9,2.9,0,0,1,373.74,125.25Z" style="fill:#f5f5f5"></path><path d="M376,163.31l-1-6.57c.39-.06.77-.12,1.15-.2l1.22,6.53C376.94,163.16,376.48,163.24,376,163.31Zm-14.07-.65q-.69-.16-1.38-.36l1.82-6.39c.37.11.74.21,1.12.3ZM390.52,158,387,152.33c.33-.2.65-.42,1-.63l3.75,5.48C391.31,157.44,390.92,157.7,390.52,158ZM348,156c-.37-.28-.74-.58-1.1-.88l4.23-5.11c.3.25.61.49.91.72Zm53.62-8.84-5.53-3.68c.22-.33.42-.65.63-1l5.66,3.48C402.11,146.36,401.86,146.76,401.6,147.15Zm-63.67-2.92c-.22-.42-.44-.83-.65-1.26l6-2.94c.17.35.35.7.54,1Zm69.4-11.44-6.54-1.13c.07-.38.12-.77.18-1.15l6.58.88C407.49,131.86,407.41,132.33,407.33,132.79Zm-67.17-3.92-6.62.53c0-.47-.06-.94-.08-1.42l6.63-.26C340.11,128.1,340.13,128.49,340.16,128.87ZM400.29,119c-.1-.37-.2-.75-.31-1.12l3.15-1.06,3.19-.93-3.19.93,3.21-.86c.15.5.27,1,.39,1.41Zm-58.47-2.68-6.26-2.22c.16-.45.33-.89.5-1.32l6.17,2.45C342.09,115.55,342,115.92,341.82,116.28Zm52.79-8.81c-.24-.3-.48-.6-.73-.89l5-4.33c.31.36.61.72.91,1.09Zm-46.15-2-4.83-4.56c.32-.34.65-.68,1-1l4.65,4.74C349,104.88,348.72,105.15,348.46,105.43Zm36.36-6.05-1.05-.52,2.86-6c.42.2.85.41,1.26.63Zm-25.9-1.14-2.54-6.14,1.31-.52L360,97.81ZM372.58,96l-1.16,0,.16-6.64c.47,0,.95,0,1.42.06Z" style="fill:#fafafa"></path><path d="M401.89,230.77a35.23,35.23,0,0,1,32.26,32.34,35,35,0,0,1-32.35,37.52,35,35,0,0,1-37.52-32.35,35,35,0,0,1,32.35-37.52A35.52,35.52,0,0,1,401.89,230.77Z" style="fill:#f0f0f0"></path><path d="M387,271.23l11.5-7.1-1,1.26,4.89-17L400.91,266v0a1.4,1.4,0,0,1-1,1.22Z" style="fill:#e0e0e0"></path><path d="M396.38,266.17a2.5,2.5,0,1,1,2.93,2A2.5,2.5,0,0,1,396.38,266.17Z" style="fill:#e6e6e6"></path><path d="M401.39,233.61l-.37,5.72-1,0,.16-5.74C400.58,233.56,401,233.58,401.39,233.61Zm11.77,3.11c.37.17.74.36,1.1.55l-2.69,5.07-.9-.45Zm-25-1.23,2,5.39-.93.36L387,235.93C387.4,235.77,387.78,235.63,388.17,235.49Zm35.57,9.4c.26.31.52.63.77,1L420,249.39c-.21-.27-.42-.53-.64-.78Zm-46.9-2.3,4,4.12-.71.72-4.15-4Zm53.24,14.07c.12.39.22.78.32,1.18l-5.56,1.4c-.08-.33-.17-.65-.27-1Zm-60.7-3,5.32,2.15c-.13.31-.25.62-.36.94l-5.4-1.94C369.08,254.44,369.22,254.06,369.38,253.68Zm56,15.55,5.69.75c0,.41-.11.82-.18,1.22l-5.66-1C425.31,269.89,425.36,269.56,425.4,269.23Zm-52.59-2.59c0,.34,0,.67.06,1L370,268l-2.86.2L370,268l-2.87.14c0-.45-.05-.85-.07-1.26Zm48.9,12.92,4.88,3c-.21.34-.43.69-.66,1l-4.77-3.19C421.35,280.13,421.53,279.84,421.71,279.56Zm-46.2-2.17.46.89L370.92,281c-.19-.36-.38-.72-.56-1.09Zm38.62,10.12,3.24,4.74c-.33.23-.67.45-1,.67l-3.06-4.85ZM382.31,286c.26.22.52.43.79.63l-3.51,4.55c-.32-.25-.64-.5-.95-.76ZM404,291.69l1,5.65-1.21.19-.81-5.68Zm-12-.56,1,.26L391.65,297c-.4-.09-.8-.2-1.19-.31Z" style="fill:#e0e0e0"></path></g><g id="freepik--Shadow--inject-4"><ellipse id="freepik--path--inject-4" cx="250" cy="416.24" rx="193.89" ry="11.32" style="fill:#f5f5f5"></ellipse></g><g id="freepik--Wristwatch--inject-4"><path d="M199.15,372.18H156.39a2.09,2.09,0,0,1,0-4.17h41.27l9-26H156.68a2.08,2.08,0,0,1,0-4.16h52.87a2.13,2.13,0,0,1,1.7.87,2.09,2.09,0,0,1,.27,1.89l-10.41,30.18A2.09,2.09,0,0,1,199.15,372.18Z" style="fill:#1C87FF"></path><path d="M211.52,340.59l-9.82,28.5-.59,1.68a2.08,2.08,0,0,1-2,1.4H156.39a2.08,2.08,0,1,1,0-4.16h41.27l.25-.74,6.75-19.57,2-5.71H156.69a2.08,2.08,0,0,1,0-4.16h52.86a2.09,2.09,0,0,1,1.7.87,2,2,0,0,1,.11.2A2.08,2.08,0,0,1,211.52,340.59Z" style="fill:#fff;opacity:0.4"></path><path d="M204.66,347.7l2-5.71H156.69a2.08,2.08,0,0,1,0-4.16h52.86a2.09,2.09,0,0,1,1.7.87,2,2,0,0,1,.11.2A39,39,0,0,1,204.66,347.7Z" style="isolation:isolate;opacity:0.2"></path><path d="M201.7,369.09l-.59,1.68a2.08,2.08,0,0,1-2,1.4H176.54c.19-1.07.47-2.68.74-4.16h20.38l.25-.74A12,12,0,0,0,201.7,369.09Z" style="isolation:isolate;opacity:0.2"></path><polygon points="195.89 366.72 119.83 366.72 73.03 413.09 73.03 416.88 253.65 416.88 253.65 413.09 195.89 366.72" style="fill:#1C87FF"></polygon><polygon points="253.64 413.09 253.64 416.88 146.77 416.88 146.77 413.09 73.03 413.09 119.83 366.72 195.89 366.72 253.64 413.09" style="fill:#fff;opacity:0.6000000000000001"></polygon><polygon points="139.47 366.77 146.77 413.09 253.65 413.09 195.89 366.72 139.47 366.77" style="fill:#fff;opacity:0.2"></polygon><rect x="73.02" y="413.09" width="73.75" height="3.79" style="fill:#fff;opacity:0.4"></rect><path d="M143.38,230.85l-7.44-4.39H96.18A1.23,1.23,0,0,0,95,227.55L93,243.3a1.23,1.23,0,0,0,1.23,1.38H133.7l6.3,3.72a1.53,1.53,0,0,0,2.29-1.13l1.84-14.91A1.55,1.55,0,0,0,143.38,230.85Z" style="fill:#263238"></path><path d="M138.52,320.11H98.91a3.31,3.31,0,0,1-3.38-3.47l.85-22.88A1.77,1.77,0,0,1,98,292.11a1.39,1.39,0,0,1,1.51,1.45l-.84,22.88a.56.56,0,0,0,.57.58h39.6a.39.39,0,0,0,.39-.37l.85-22.89a1.77,1.77,0,0,1,1.62-1.65,1.38,1.38,0,0,1,1.51,1.45l-.84,22.88a3.81,3.81,0,0,1-1.2,2.58A3.86,3.86,0,0,1,138.52,320.11Z" style="fill:#1C87FF"></path><path d="M122.18,307.27l.52-14.06a.87.87,0,0,0-.89-.91h-2.64a.63.63,0,0,0-.63.59l-.53,14.3a.91.91,0,0,0,.94,1h2.31A.94.94,0,0,0,122.18,307.27Z" style="fill:#1C87FF"></path><path d="M185.44,354.79c-3.88,3-8,4.66-12.24,4.66H131.58c-15.85,0-29.17-22.67-35-55.42a215.88,215.88,0,0,1-3.09-40.82c.4-26.5,5.18-50.48,12.56-67.88A10.69,10.69,0,0,1,114,189a9.92,9.92,0,0,1,1.89-.18h37.23c-.76,1.42-1.5,2.89-2.22,4.44-.41.91-.83,1.83-1.22,2.76-7.66,17.94-12.09,41.84-12.49,67.28a215.84,215.84,0,0,0,3.15,41.13c0,.2.08.39.11.58a130.36,130.36,0,0,0,8.21,28.33c3.15,7.28,6.87,13.24,11.06,17.49s8.8,6.57,13.42,6.57a16.59,16.59,0,0,0,8.52-2.58Z" style="fill:#263238"></path><path d="M153.15,188.79c-.76,1.42-1.5,2.89-2.22,4.44-.41.91-.83,1.83-1.22,2.76-7.66,17.94-12.09,41.84-12.49,67.28a215.84,215.84,0,0,0,3.15,41.13H123.53l-1.12,3.18a7.53,7.53,0,0,1-6.15-3.18H99.86l-1.21-1a217.44,217.44,0,0,1-3.09-40.81c.41-26.5,5.19-50.48,12.57-67.89A10.73,10.73,0,0,1,114,189a9.92,9.92,0,0,1,1.89-.18Z" style="isolation:isolate;opacity:0.2"></path><path d="M121.88,309.44H118a1.45,1.45,0,0,1-1.44-1.44h0a1.45,1.45,0,0,1,1.44-1.44h3.86a1.45,1.45,0,0,1,1.44,1.44h0A1.45,1.45,0,0,1,121.88,309.44Z"></path><path d="M131.65,336.4H127.8a1.45,1.45,0,0,1-1.44-1.44h0a1.45,1.45,0,0,1,1.44-1.44h3.85a1.44,1.44,0,0,1,1.44,1.44h0A1.44,1.44,0,0,1,131.65,336.4Z"></path><path d="M209.55,202.81h-2.11c-3.77-11.74-8.75-21.19-14.67-27.21-4.28-4.35-8.79-6.56-13.41-6.56-9,0-18.17,8.78-25.31,24.19-.41.9-.83,1.82-1.22,2.75-7.66,18-12.09,41.85-12.49,67.28a223.84,223.84,0,0,0,1.74,32,1,1,0,0,1-1,1.15H99.44a1,1,0,0,1-1-.89,222.87,222.87,0,0,1-1.77-32.29c.83-53.15,19.2-96.25,41.05-96.25h41.63C191.76,167,202.64,181,209.55,202.81Z" style="fill:#263238"></path><path d="M142.37,236c-.79,5.77-1.36,11.72-1.7,17.79a1.47,1.47,0,0,1-.85.26H102a6,6,0,0,1-3-.82l-1.86-1.09c.39-6.35,1-12.51,1.92-18.42l2.19,1.3a5.83,5.83,0,0,0,3,.82h37.5A1.59,1.59,0,0,1,142.37,236Z" style="isolation:isolate;opacity:0.2"></path><path d="M124,296.38h-7.29a1.21,1.21,0,0,0,1.21-1.32l-.26-2.89a.83.83,0,0,1,.82-.9h2.78a1.17,1.17,0,0,1,1.15,1.05l.22,2.8A1.39,1.39,0,0,0,124,296.38Z"></path><path d="M99.51,293.56l-.76,20.73c-1-4.18-1.9-8.58-2.64-13.17l.27-7.36A1.77,1.77,0,0,1,98,292.11,1.39,1.39,0,0,1,99.51,293.56Z" style="fill:#263238"></path><path d="M122.7,293.21l-.52,14.06a.94.94,0,0,1-.92.88H119a.91.91,0,0,1-.94-.95l.53-14.31a.63.63,0,0,1,.63-.59h2.64A.86.86,0,0,1,122.7,293.21Z" style="fill:#263238"></path><path d="M100.29,320.12H98.91A3.29,3.29,0,0,1,95.74,318a3.51,3.51,0,0,1-.2-1.3l.58-15.53.27-7.35A1.79,1.79,0,0,1,98,292.11a1.42,1.42,0,0,1,1,.32,1.32,1.32,0,0,1,.52,1.13l-.76,20.74-.08,2.14a.54.54,0,0,0,.56.58h.2C99.72,318.07,100,319.1,100.29,320.12Z" style="fill:#1C87FF"></path><path d="M122.71,293.22l-.51,13.7v.35a1,1,0,0,1-.93.89H119a.91.91,0,0,1-.93-1l.53-14.3a.63.63,0,0,1,.62-.6h2.64A.88.88,0,0,1,122.71,293.22Z" style="fill:#1C87FF"></path><path d="M122.71,293.22l-.51,13.7h-1.88a.93.93,0,0,1-.94-1l.47-12.71a1,1,0,0,1,1-.94h1A.88.88,0,0,1,122.71,293.22Z" style="fill:#fff;opacity:0.2"></path><path d="M99,292.43l-1.13,24.73a1.06,1.06,0,0,1-1.31,1l-.82-.19a3.51,3.51,0,0,1-.2-1.3l.58-15.53.27-7.35A1.79,1.79,0,0,1,98,292.11,1.42,1.42,0,0,1,99,292.43Z" style="fill:#fff;opacity:0.2"></path><path d="M144,233.08l-1.87,15.16a1.52,1.52,0,0,1-1.52,1.34H102.78a6,6,0,0,1-3-.82l-6.21-3.67a1.23,1.23,0,0,1-.6-1.21l1.91-15.55a1.23,1.23,0,0,1,1.85-.91l5.3,3.12a5.89,5.89,0,0,0,3,.82h37.49a1.57,1.57,0,0,1,1.44,1A1.66,1.66,0,0,1,144,233.08Z" style="fill:#263238"></path><path d="M144,232.34a1.57,1.57,0,0,1-1.22.59H104.86a6,6,0,0,1-3-.82l-6.21-3.66a.84.84,0,1,1,1.08-1l5.3,3.12a5.89,5.89,0,0,0,3,.82h37.49A1.57,1.57,0,0,1,144,232.34Z" style="fill:#fff;opacity:0.2"></path><path d="M188.81,341.35a17.14,17.14,0,0,1-10.54,4H142.44c-.29,0-.58,0-.86,0l-.34,0-.76-.08-.11,0c-.31,0-.62-.1-.93-.17a6.66,6.66,0,0,1-.77-.19l-.13,0-.53-.16-.65-.22-.6-.23-.47-.21h0a18.46,18.46,0,0,1-1.65-.85l-.79-.48a2.51,2.51,0,0,0-.29-.2c-.26-.17-.52-.35-.77-.54l-.15-.11c-.26-.19-.51-.39-.77-.6a27.51,27.51,0,0,1-2.7-2.53l-.8-.88-.85-1c-.25-.3-.48-.61-.73-.93-.08-.11-.17-.21-.25-.33l-.66-.9c-.27-.39-.54-.77-.8-1.17s-.51-.78-.75-1.17c-.53-.85-1-1.73-1.55-2.64-.25-.45-.5-.91-.74-1.37l-.72-1.43c-.24-.47-.46-1-.69-1.45-.07-.14-.13-.28-.19-.43a8.1,8.1,0,0,1,7.5-11.13h15.62a14.81,14.81,0,0,1,13.61,8.94l0,.08a67.4,67.4,0,0,0,3.38,6.75c.34.6.69,1.19,1,1.75a38.58,38.58,0,0,0,5.09,6.55c3.68,3.74,7.58,5.65,11.56,5.65a14.24,14.24,0,0,0,7.33-2.22Z" style="fill:#1C87FF"></path><path d="M188.81,341.35a17.14,17.14,0,0,1-10.54,4H142.44c-.29,0-.58,0-.86,0l-.34,0-.76-.08-.11,0c-.31,0-.62-.1-.93-.17a6.66,6.66,0,0,1-.77-.19l-.13,0-.53-.16-.65-.22-.6-.23-.47-.21h0a18.46,18.46,0,0,1-1.65-.85l-.79-.48a2.51,2.51,0,0,0-.29-.2c-.26-.17-.52-.35-.77-.54l-.15-.11c-.26-.19-.51-.39-.77-.6a27.51,27.51,0,0,1-2.7-2.53l-.8-.88-.85-1c-.25-.3-.48-.61-.73-.93-.08-.11-.17-.21-.25-.33l-.66-.9c-.27-.39-.54-.77-.8-1.17s-.51-.78-.75-1.17c-.53-.85-1-1.73-1.55-2.64-.25-.45-.5-.91-.74-1.37l-.72-1.43c-.24-.47-.46-1-.69-1.45-.07-.14-.13-.28-.19-.43a8.1,8.1,0,0,1,7.5-11.13h15.62a14.81,14.81,0,0,1,13.61,8.94l0,.08a67.4,67.4,0,0,0,3.38,6.75c.34.6.69,1.19,1,1.75a38.58,38.58,0,0,0,5.09,6.55c3.68,3.74,7.58,5.65,11.56,5.65a14.24,14.24,0,0,0,7.33-2.22Z" style="fill:#fff;opacity:0.6000000000000001"></path><path d="M209.56,210.53h-1.82c-3.25-10.11-7.53-18.23-12.63-23.42-3.67-3.74-7.56-5.65-11.54-5.65-5.91,0-11.87,4.37-17.08,12.28-.36.54-.71,1.09-1.05,1.66a65.93,65.93,0,0,0-3.65,6.89q-.54,1.16-1,2.37-1.44,3.34-2.68,7a14.64,14.64,0,0,1-13.83,10H127.88a7.83,7.83,0,0,1-7.52-10l.09-.31c.09-.27.18-.53.28-.79.48-1.4,1-2.76,1.5-4.07,1-2.47,2-4.81,3.09-7,.2-.42.41-.83.62-1.23s.39-.74.59-1.1.34-.63.52-.94a58.82,58.82,0,0,1,3.14-5q.47-.68,1-1.29c.32-.44.66-.87,1-1.27l.51-.61a32.56,32.56,0,0,1,3.82-3.8c.29-.25.59-.48.88-.71s.36-.27.54-.4.4-.29.61-.42l.33-.22c.32-.2.62-.4.93-.57a18.35,18.35,0,0,1,3-1.39l.84-.27.08,0c.34-.09.67-.18,1-.25l.08,0,.79-.14c.32-.05.65-.09,1-.11l.4,0,.77,0h35.84C194.25,179.67,203.61,191.72,209.56,210.53Z" style="fill:#1C87FF"></path><path d="M209.56,210.53h-1.82c-3.25-10.11-7.53-18.23-12.63-23.42-3.67-3.74-7.56-5.65-11.54-5.65-5.91,0-11.87,4.37-17.08,12.28-.36.54-.71,1.09-1.05,1.66a65.93,65.93,0,0,0-3.65,6.89q-.54,1.16-1,2.37-1.44,3.34-2.68,7a14.64,14.64,0,0,1-13.83,10H127.88a7.83,7.83,0,0,1-7.52-10l.09-.31c.09-.27.18-.53.28-.79.48-1.4,1-2.76,1.5-4.07,1-2.47,2-4.81,3.09-7,.2-.42.41-.83.62-1.23s.39-.74.59-1.1.34-.63.52-.94a58.82,58.82,0,0,1,3.14-5q.47-.68,1-1.29c.32-.44.66-.87,1-1.27l.51-.61a32.56,32.56,0,0,1,3.82-3.8c.29-.25.59-.48.88-.71s.36-.27.54-.4.4-.29.61-.42l.33-.22c.32-.2.62-.4.93-.57a18.35,18.35,0,0,1,3-1.39l.84-.27.08,0c.34-.09.67-.18,1-.25l.08,0,.79-.14c.32-.05.65-.09,1-.11l.4,0,.77,0h35.84C194.25,179.67,203.61,191.72,209.56,210.53Z" style="fill:#fff;opacity:0.6000000000000001"></path><path d="M174.79,281.49c-1.65,14.62-4.91,28-9.54,38.88q-.52,1.22-1.05,2.37c-6.15,13.27-14,20.82-21.79,20.82a14.24,14.24,0,0,1-8.2-2.81H131.3c3.47,3,7.21,4.61,11.14,4.61h44.79c16.12,0,30-27.26,34.13-63.87Z" style="fill:#1C87FF"></path><path d="M174.79,281.49c-1.65,14.62-4.91,28-9.54,38.88q-.52,1.22-1.05,2.37c-6.15,13.27-14,20.82-21.79,20.82a14.24,14.24,0,0,1-8.2-2.81H131.3c3.47,3,7.21,4.61,11.14,4.61h44.79c16.12,0,30-27.26,34.13-63.87Z" style="fill:#fff;opacity:0.6000000000000001"></path><path d="M176.58,281.49c-2.32,20.69-7.77,38.39-15,49.88-5.56,8.83-12.15,14-19.16,14-.29,0-.58,0-.86,0l-.34,0-.76-.08-.11,0c-.31,0-.62-.1-.93-.17a6.66,6.66,0,0,1-.77-.19l-.13,0-.53-.16-.65-.22-.6-.23-.47-.21h0a18.46,18.46,0,0,1-1.65-.85l-.79-.48a2.51,2.51,0,0,0-.29-.2c-.26-.17-.52-.35-.77-.54l-.15-.11c-.26-.19-.51-.39-.77-.6a27.51,27.51,0,0,1-2.7-2.53l-.8-.88-.85-1c-.25-.3-.48-.61-.73-.93-.08-.11-.17-.21-.25-.33l-.66-.9c-.27-.39-.54-.77-.8-1.17s-.51-.78-.75-1.17c-.53-.85-1-1.73-1.55-2.64-.25-.45-.5-.91-.74-1.37l-.72-1.43c-.24-.47-.46-1-.69-1.45-.07-.14-.13-.28-.19-.43a8.1,8.1,0,0,1,7.5-11.13h.85A7.4,7.4,0,0,0,122,324.3a47.58,47.58,0,0,0,8.87,13.61c3.68,3.75,7.57,5.65,11.54,5.65,6.32,0,12.68-5,18.14-13.94a72.28,72.28,0,0,0,3.65-6.89c.35-.77.71-1.56,1.05-2.36,4.63-10.86,7.89-24.26,9.54-38.88Z" style="fill:#fff;opacity:0.4"></path><path d="M192.49,179.67H147.56v1.8l.18,0c4,0,7.87,1.91,11.55,5.65a49.5,49.5,0,0,1,9.52,15c1.13,2.6,2.16,5.4,3.11,8.37h46.6C212.57,191.71,203.2,179.67,192.49,179.67Z" style="fill:#1C87FF"></path><path d="M192.49,179.67H147.56v1.8l.18,0c4,0,7.87,1.91,11.55,5.65a49.5,49.5,0,0,1,9.52,15c1.13,2.6,2.16,5.4,3.11,8.37h46.6C212.57,191.71,203.2,179.67,192.49,179.67Z" style="fill:#fff;opacity:0.6000000000000001"></path><path d="M173.74,210.53h-1.82c-.95-3-2-5.77-3.11-8.37a67.58,67.58,0,0,0-3.37-6.76,41.62,41.62,0,0,0-6.14-8.28c-3.68-3.76-7.57-5.65-11.56-5.65-8.22,0-16.54,8.46-22.84,23.19q-1.45,3.45-2.75,7.25a7.4,7.4,0,0,0,7,9.74h-1.31a7.83,7.83,0,0,1-7.52-10c.11-.38.24-.74.37-1.1.48-1.4,1-2.75,1.5-4.07,1-2.47,2-4.81,3.09-7,.2-.42.41-.83.62-1.23s.39-.74.59-1.1.34-.63.52-.94a58.82,58.82,0,0,1,3.14-5c.32-.45.63-.88,1-1.29s.66-.87,1-1.27l.51-.61a32.56,32.56,0,0,1,3.82-3.8c.28-.25.59-.48.88-.71s.36-.27.54-.4.4-.29.61-.42l.33-.22c.32-.2.62-.4.93-.57a18.35,18.35,0,0,1,3-1.39l.84-.27.08,0c.34-.09.67-.18,1-.25l.08,0,.79-.14c.32-.05.65-.09,1-.11l.4,0,.77,0h0c7,0,13.48,5.19,18.78,14.07A81.11,81.11,0,0,1,173.74,210.53Z" style="fill:#fff;opacity:0.4"></path><path d="M169.15,285.25c-1.91,17-5.69,32.54-11.08,45.17-.4.93-.81,1.85-1.22,2.75-7.15,15.42-16.27,24.19-25.31,24.19A16.57,16.57,0,0,1,122,354.1h-3.39c4,3.46,8.38,5.35,13,5.35h52c18.73,0,34.9-31.67,39.66-74.2Z" style="fill:#263238"></path><path d="M171.24,285.25c-4.76,42.53-20.93,74.2-39.66,74.2-.32,0-.63,0-1,0l-.75-.06c-.22,0-.45-.05-.67-.09l-.43-.06-.32-.06a3.25,3.25,0,0,1-.54-.12l-.55-.13c-.28-.07-.55-.15-.83-.24a12.89,12.89,0,0,1-1.64-.59,15.65,15.65,0,0,1-1.61-.76c-.26-.14-.53-.28-.79-.44s-.53-.31-.79-.48c-.52-.32-1-.69-1.56-1.07h0c-16-12-27.3-48.7-26.63-92.13.42-26.49,5.2-50.47,12.58-67.87a10.74,10.74,0,0,1,5.78-5.73,10.19,10.19,0,0,1,2.73-.72c-.25.46-.5.95-.75,1.44a10.83,10.83,0,0,0-3.41,2.24,10.53,10.53,0,0,0-2.35,3.43c-7.66,18-12.09,41.85-12.49,67.28-.6,38.66,8.25,73,22.52,87.53a26.75,26.75,0,0,0,3.87,3.3,18.26,18.26,0,0,0,4.73,2.45,10.26,10.26,0,0,0,1.2.35l.6.15c.2,0,.4.08.6.11.43.07.87.14,1.31.17l.41,0,.7,0c9,0,18.17-8.77,25.31-24.19.41-.9.83-1.82,1.22-2.76,1.35-3.15,2.59-6.5,3.74-10q1.27-3.93,2.39-8.12a184.36,184.36,0,0,0,4.15-20.75q.43-3.1.8-6.29Z" style="fill:#fff;opacity:0.2"></path><path d="M175.05,356.74h-5.29A.72.72,0,0,1,169,356h0a.72.72,0,0,1,.72-.72h5.29a.72.72,0,0,1,.72.72h0A.72.72,0,0,1,175.05,356.74Z"></path><path d="M220,202.81H165.82a103.41,103.41,0,0,0-3.61-9.72c-3.15-7.27-6.87-13.23-11.06-17.49S142.36,169,137.74,169c-8.13,0-16.36,7.13-23.14,19.83-.25.46-.5.95-.75,1.44-.91,1.79-1.78,3.68-2.64,5.67-7.66,18-12.09,41.85-12.49,67.28a223.1,223.1,0,0,0,1.9,33.12H99.44a1,1,0,0,1-1-.89,224.44,224.44,0,0,1-1.77-32.3c.44-27.92,5.72-53.06,13.8-70.64.46-1,.94-2,1.43-3C119,175.46,128,167,137.7,167h52C202.16,167,213.05,181,220,202.81Z" style="fill:#263238"></path><path d="M99.45,296.38a1,1,0,0,0,1-1.16,223.72,223.72,0,0,1-1.74-32c.4-25.45,4.83-49.34,12.49-67.28,7.3-17.12,17-27,26.53-27,4.62,0,9.14,2.21,13.42,6.56s7.9,10.22,11.05,17.49c1.31,3,2.51,6.27,3.62,9.71h2.11C161,180.94,150.15,167,137.7,167,115.85,167,97.47,210,96.64,263.2a222.69,222.69,0,0,0,1.78,32.28,1,1,0,0,0,1,.9Z" style="fill:#fff;opacity:0.2"></path><polygon points="224.86 207.55 229.91 279.55 225.24 286.61 173.79 286.61 162.01 274.05 157.95 216.25 165.51 203.77 220.87 203.77 224.86 207.55" style="fill:#1C87FF"></polygon><path d="M233.66,216.25l-8.54-7.87a7.6,7.6,0,0,0-5.13-2H168.38l-6.57,2.08a6.61,6.61,0,0,0-4.85,2l-7.43,7.87a6.42,6.42,0,0,0-1.73,4.92L151,268a7.4,7.4,0,0,0,2.41,4.91l6.57,6.05a14.33,14.33,0,0,0,9.72,3.86l3.95-2.08h51.61a6.61,6.61,0,0,0,4.85-2l7.43-7.87a6.42,6.42,0,0,0,1.73-4.92l-3.15-44.77A7.4,7.4,0,0,0,233.66,216.25Z" style="fill:#1C87FF"></path><path d="M178.55,280.76a14.35,14.35,0,0,1-9.73-3.86l-6.57-6a7.47,7.47,0,0,1-2.41-4.92l-3.14-44.77a6.44,6.44,0,0,1,1.72-4.91l7.44-7.87a6.59,6.59,0,0,1,4.84-2H220a7.6,7.6,0,0,1,5.13,2l8.54,7.87a7.4,7.4,0,0,1,2.41,4.91l3.15,44.77a6.45,6.45,0,0,1-1.72,4.92l-7.44,7.87a6.61,6.61,0,0,1-4.85,2Z" style="fill:#fff;opacity:0.2"></path><path d="M229.78,222.7l2.93,41.7a4.8,4.8,0,0,1-1.28,3.67l-4.21,4.45a5,5,0,0,1-3.62,1.53H177.07a5.72,5.72,0,0,1-3.84-1.53l-4.83-4.45a5.56,5.56,0,0,1-1.8-3.67l-2.93-41.7A4.84,4.84,0,0,1,165,219l4.2-4.45a4.94,4.94,0,0,1,3.63-1.53h46.52a5.7,5.7,0,0,1,3.85,1.53L228,219A5.49,5.49,0,0,1,229.78,222.7Z" style="fill:#1C87FF"></path><path d="M227.7,222.7l2.93,41.7a4.8,4.8,0,0,1-1.28,3.67l-4.21,4.45a5,5,0,0,1-3.62,1.53H177.07a5.72,5.72,0,0,1-3.84-1.53l-4.83-4.45a5.56,5.56,0,0,1-1.8-3.67l-2.93-41.7A4.84,4.84,0,0,1,165,219l4.2-4.45a4.94,4.94,0,0,1,3.63-1.53h44.44a5.7,5.7,0,0,1,3.85,1.53l2.26,2.09L225.9,219A5.54,5.54,0,0,1,227.7,222.7Z" style="fill:#263238"></path><path d="M201.24,219.38h-14.7a1.4,1.4,0,0,1-1.39-1.28h0a1.18,1.18,0,0,1,1.21-1.28h14.7a1.41,1.41,0,0,1,1.4,1.28h0A1.19,1.19,0,0,1,201.24,219.38Z" style="fill:#fff;opacity:0.4"></path><path d="M198.31,271.16h-1.56a1.42,1.42,0,0,1-1.4-1.28l-.06-.82a1.19,1.19,0,0,1,1.22-1.28h1.57a1.4,1.4,0,0,1,1.39,1.28l.06.82A1.2,1.2,0,0,1,198.31,271.16Z" style="fill:#fff;opacity:0.4"></path><path d="M220,223.14H168.3a6.14,6.14,0,0,0-4.46,1.85l.11,1.6a5.11,5.11,0,0,1,4.43-2.43h51.7a6,6,0,0,1,5.92,5.47l2,27.84a5.07,5.07,0,0,1-5.15,5.47H171.1a6,6,0,0,1-4.77-2.43l.11,1.59a7.07,7.07,0,0,0,4.73,1.86h51.71a6,6,0,0,0,6.12-6.49l-2-27.84A7.13,7.13,0,0,0,220,223.14Z" style="fill:#fff;opacity:0.2"></path><path d="M224.44,229.63l2,27.84a3.64,3.64,0,0,1-3.7,3.93H171a4.3,4.3,0,0,1-4.25-3.93l-2-27.84a3.63,3.63,0,0,1,3.69-3.93h51.71A4.3,4.3,0,0,1,224.44,229.63Z" style="fill:#fff;opacity:0.5"></path><polygon points="193.92 234.32 194.1 236.83 193.7 237.25 193.23 236.82 193.06 234.33 193.46 233.9 193.92 234.32" style="fill:#263238"></polygon><polygon points="193.67 230.72 193.85 233.22 193.45 233.65 192.98 233.21 192.8 230.73 193.21 230.29 193.67 230.72" style="fill:#263238"></polygon><polygon points="197.63 234.32 197.81 236.83 197.41 237.25 196.94 236.82 196.76 234.33 197.17 233.9 197.63 234.32" style="fill:#263238"></polygon><polygon points="197.38 230.72 197.55 233.22 197.15 233.65 196.68 233.21 196.51 230.73 196.92 230.29 197.38 230.72" style="fill:#263238"></polygon><polygon points="196.35 230.56 193.81 230.56 193.35 230.14 193.76 229.71 196.28 229.71 196.75 230.14 196.35 230.56" style="fill:#263238"></polygon><polygon points="196.6 234.2 194.06 234.2 193.6 233.78 194.01 233.34 196.54 233.34 197 233.78 196.6 234.2" style="fill:#263238"></polygon><polygon points="196.86 237.84 194.32 237.84 193.86 237.41 194.27 236.98 196.79 236.98 197.26 237.41 196.86 237.84" style="fill:#263238"></polygon><polygon points="170.3 230.72 170.47 233.22 170.07 233.65 169.6 233.21 169.43 230.73 169.84 230.29 170.3 230.72" style="fill:#263238"></polygon><polygon points="174.26 234.32 174.43 236.83 174.03 237.25 173.56 236.82 173.39 234.33 173.8 233.9 174.26 234.32" style="fill:#263238"></polygon><polygon points="172.97 230.56 170.43 230.56 169.97 230.14 170.38 229.71 172.91 229.71 173.38 230.14 172.97 230.56" style="fill:#263238"></polygon><polygon points="173.23 234.2 170.69 234.2 170.23 233.78 170.64 233.34 173.16 233.34 173.63 233.78 173.23 234.2" style="fill:#263238"></polygon><polygon points="173.49 237.84 170.94 237.84 170.49 237.41 170.89 236.98 173.42 236.98 173.89 237.41 173.49 237.84" style="fill:#263238"></polygon><polygon points="176.12 234.32 176.29 236.83 175.89 237.25 175.42 236.82 175.25 234.33 175.66 233.9 176.12 234.32" style="fill:#263238"></polygon><polygon points="175.86 230.72 176.04 233.22 175.64 233.65 175.17 233.21 175 230.73 175.4 230.29 175.86 230.72" style="fill:#263238"></polygon><polygon points="179.82 234.32 180 236.83 179.6 237.25 179.13 236.82 178.95 234.33 179.36 233.9 179.82 234.32" style="fill:#263238"></polygon><polygon points="179.57 230.72 179.74 233.22 179.34 233.65 178.88 233.21 178.7 230.73 179.11 230.29 179.57 230.72" style="fill:#263238"></polygon><polygon points="178.54 230.56 176 230.56 175.54 230.14 175.95 229.71 178.47 229.71 178.94 230.14 178.54 230.56" style="fill:#263238"></polygon><polygon points="178.8 234.2 176.26 234.2 175.8 233.78 176.2 233.34 178.73 233.34 179.2 233.78 178.8 234.2" style="fill:#263238"></polygon><polygon points="188.51 234.32 188.69 236.83 188.28 237.25 187.82 236.82 187.64 234.33 188.05 233.9 188.51 234.32" style="fill:#263238"></polygon><polygon points="188.26 230.72 188.43 233.22 188.03 233.65 187.56 233.21 187.39 230.73 187.8 230.29 188.26 230.72" style="fill:#263238"></polygon><polygon points="187.23 230.56 184.69 230.56 184.23 230.14 184.63 229.71 187.16 229.71 187.63 230.14 187.23 230.56" style="fill:#263238"></polygon><polygon points="187.48 234.2 184.94 234.2 184.48 233.78 184.89 233.34 187.41 233.34 187.88 233.78 187.48 234.2" style="fill:#263238"></polygon><polygon points="187.74 237.84 185.2 237.84 184.74 237.41 185.15 236.98 187.67 236.98 188.14 237.41 187.74 237.84" style="fill:#263238"></polygon><polygon points="191.39 234.54 190.31 234.54 190.26 233.86 191.34 233.86 191.39 234.54" style="fill:#263238"></polygon><polygon points="176.96 252.8 177.19 256.07 176.66 256.63 176.05 256.06 175.82 252.81 176.35 252.25 176.96 252.8" style="fill:#263238"></polygon><polygon points="176.62 248.09 176.85 251.36 176.33 251.92 175.72 251.35 175.49 248.1 176.02 247.54 176.62 248.09" style="fill:#263238"></polygon><polygon points="175.28 247.89 171.96 247.89 171.36 247.34 171.9 246.77 175.19 246.77 175.8 247.34 175.28 247.89" style="fill:#263238"></polygon><polygon points="183.22 248.09 183.44 251.36 182.92 251.92 182.31 251.35 182.08 248.1 182.62 247.54 183.22 248.09" style="fill:#263238"></polygon><polygon points="188.39 252.8 188.62 256.07 188.09 256.63 187.48 256.06 187.25 252.81 187.79 252.25 188.39 252.8" style="fill:#263238"></polygon><polygon points="188.06 248.09 188.29 251.36 187.76 251.92 187.15 251.35 186.93 248.1 187.46 247.54 188.06 248.09" style="fill:#263238"></polygon><polygon points="187.05 252.64 183.73 252.64 183.13 252.09 183.66 251.53 186.96 251.53 187.57 252.09 187.05 252.64" style="fill:#263238"></polygon><polygon points="190.82 252.8 191.05 256.07 190.52 256.63 189.91 256.06 189.68 252.81 190.22 252.25 190.82 252.8" style="fill:#263238"></polygon><polygon points="190.49 248.09 190.72 251.36 190.19 251.92 189.58 251.35 189.35 248.1 189.89 247.54 190.49 248.09" style="fill:#263238"></polygon><polygon points="195.66 252.8 195.89 256.07 195.37 256.63 194.75 256.06 194.53 252.81 195.06 252.25 195.66 252.8" style="fill:#263238"></polygon><polygon points="195.33 248.09 195.56 251.36 195.04 251.92 194.42 251.35 194.2 248.1 194.73 247.54 195.33 248.09" style="fill:#263238"></polygon><polygon points="193.99 247.89 190.67 247.89 190.07 247.34 190.6 246.77 193.9 246.77 194.51 247.34 193.99 247.89" style="fill:#263238"></polygon><polygon points="194.32 252.64 191 252.64 190.4 252.09 190.93 251.53 194.23 251.53 194.84 252.09 194.32 252.64" style="fill:#263238"></polygon><polygon points="194.65 257.39 191.34 257.39 190.73 256.84 191.27 256.28 194.56 256.28 195.18 256.84 194.65 257.39" style="fill:#263238"></polygon><polygon points="198.64 254.54 198.78 256.57 198.46 256.92 198.08 256.57 197.94 254.55 198.27 254.2 198.64 254.54" style="fill:#263238"></polygon><polygon points="198.44 251.62 198.58 253.65 198.26 254 197.88 253.65 197.73 251.63 198.06 251.28 198.44 251.62" style="fill:#263238"></polygon><polygon points="201.65 254.54 201.79 256.57 201.47 256.92 201.09 256.57 200.94 254.55 201.28 254.2 201.65 254.54" style="fill:#263238"></polygon><polygon points="201.44 251.62 201.59 253.65 201.26 254 200.88 253.65 200.74 251.63 201.07 251.28 201.44 251.62" style="fill:#263238"></polygon><polygon points="200.61 251.49 198.55 251.49 198.18 251.15 198.51 250.8 200.56 250.8 200.93 251.15 200.61 251.49" style="fill:#263238"></polygon><polygon points="201.02 257.39 198.96 257.39 198.59 257.05 198.92 256.7 200.97 256.7 201.35 257.05 201.02 257.39" style="fill:#263238"></polygon><polygon points="203.16 254.54 203.3 256.57 202.97 256.92 202.59 256.57 202.45 254.55 202.78 254.2 203.16 254.54" style="fill:#263238"></polygon><polygon points="202.95 251.62 203.09 253.65 202.77 254 202.39 253.65 202.25 251.63 202.58 251.28 202.95 251.62" style="fill:#263238"></polygon><polygon points="206.16 254.54 206.31 256.57 205.98 256.92 205.6 256.57 205.46 254.55 205.79 254.2 206.16 254.54" style="fill:#263238"></polygon><polygon points="205.12 251.49 203.06 251.49 202.69 251.15 203.02 250.8 205.07 250.8 205.45 251.15 205.12 251.49" style="fill:#263238"></polygon><polygon points="205.33 254.44 203.27 254.44 202.9 254.1 203.23 253.75 205.28 253.75 205.66 254.1 205.33 254.44" style="fill:#263238"></polygon><polygon points="205.54 257.39 203.48 257.39 203.1 257.05 203.44 256.7 205.48 256.7 205.86 257.05 205.54 257.39" style="fill:#263238"></polygon><polygon points="179.8 250.08 179.12 250.08 179.07 249.4 179.76 249.4 179.8 250.08" style="fill:#263238"></polygon><polygon points="180.09 254.18 179.41 254.18 179.36 253.5 180.04 253.5 180.09 254.18" style="fill:#263238"></polygon><path d="M220.44,240a9.72,9.72,0,0,0-9.53-8.33,8.2,8.2,0,0,0-8.36,8.33h-37l.07,1h37a9.75,9.75,0,0,0,9.53,8.33,8.2,8.2,0,0,0,8.37-8.33h4.72l-.07-1Zm-8.36,8.34a8.6,8.6,0,0,1-8.48-7.83,7.26,7.26,0,0,1,7.38-7.82,8.6,8.6,0,0,1,8.49,7.82A7.26,7.26,0,0,1,212.08,248.3Z" style="fill:#263238"></path><path d="M210.47,240.13a1.08,1.08,0,0,0,.55,1.4,1,1,0,0,0,1.39-.44l2.54-5.52-4.29,4.29A1.09,1.09,0,0,0,210.47,240.13Z" style="fill:#263238"></path><path d="M227.22,220.82l-.87-.8-.75-.67-1.06-1a5.72,5.72,0,0,0-3.84-1.53H176.25a5,5,0,0,0-3.62,1.53l-4.21,4.45a4.89,4.89,0,0,0-1.29,3.67l2.93,41.7a5.35,5.35,0,0,0,.5,1.88l-2.16-2a6,6,0,0,1-1.1-1.37,5.55,5.55,0,0,1-.7-2.3l-2.93-41.7A4.84,4.84,0,0,1,165,219l4.2-4.45a4.94,4.94,0,0,1,3.63-1.53h44.44a5.7,5.7,0,0,1,3.85,1.53l1.06,1,.74.68,3,2.79A5.73,5.73,0,0,1,227.22,220.82Z" style="opacity:0.2"></path><path d="M205.53,213.05l-39.06,49.46-2.8-39.81A4.84,4.84,0,0,1,165,219l4.2-4.45a4.94,4.94,0,0,1,3.63-1.53Z" style="fill:#fff;opacity:0.2"></path><path d="M216.14,213.05l-45.26,57.31-2.48-2.29a6,6,0,0,1-1.1-1.37l42.36-53.65Z" style="fill:#fff;opacity:0.2"></path><polygon points="224.08 217.35 179.3 274.05 178.05 274.05 223.34 216.67 224.08 217.35" style="fill:#fff;opacity:0.2"></polygon><path d="M152,227.66c-.6,0-2.53.23-3.12.23-1.33,0-2.28,1.83-2.12,4.08s1.36,4.08,2.69,4.08c.6,0,2.52-.23,3.12-.23,1.33,0,2.27-1.83,2.11-4.08S153.35,227.66,152,227.66Z" style="fill:#263238"></path><path d="M152,227.66c-.6,0-2.53.23-3.12.23-1.33,0-2.28,1.83-2.12,4.08s1.36,4.08,2.69,4.08c.6,0,2.52-.23,3.12-.23,1.33,0,2.27-1.83,2.11-4.08S153.35,227.66,152,227.66Z" style="fill:#fff;opacity:0.2"></path><path d="M151.59,232c.16,2.25-.79,4.08-2.11,4.08s-2.53-1.83-2.69-4.08.79-4.08,2.12-4.08S151.43,229.72,151.59,232Z" style="fill:#fff;opacity:0.2"></path><path d="M153.69,251.36c-.6,0-2.53.23-3.13.23-1.32,0-2.27,1.83-2.11,4.08s1.36,4.08,2.69,4.08c.6,0,2.52-.23,3.12-.23,1.32,0,2.27-1.82,2.11-4.08S155,251.36,153.69,251.36Z" style="fill:#263238"></path><path d="M153.69,251.36c-.6,0-2.53.23-3.13.23-1.32,0-2.27,1.83-2.11,4.08s1.36,4.08,2.69,4.08c.6,0,2.52-.23,3.12-.23,1.32,0,2.27-1.82,2.11-4.08S155,251.36,153.69,251.36Z" style="fill:#fff;opacity:0.2"></path><path d="M153.25,255.67c.16,2.26-.79,4.08-2.11,4.08s-2.53-1.82-2.69-4.08.79-4.08,2.11-4.08S153.09,253.42,153.25,255.67Z" style="fill:#fff;opacity:0.2"></path><path d="M229.91,279.55l-4.27,14.09a2.11,2.11,0,0,1-2,1.49h-6.31l-.65-5.09a1.72,1.72,0,0,0-1.69-1.47H178.53a1.47,1.47,0,0,0-1.48,1.26l-.56,4.15a1.33,1.33,0,0,1-1.32,1.15h-4.9a2.5,2.5,0,0,1-2.36-1.78l-4.41-14.9a.28.28,0,0,1,.27-.36h3.63a1,1,0,0,1,.34.06h0a1.5,1.5,0,0,1,.32.19c.33.25.67.5,1,.73l.41.26.89.5.49.24.59.25a4.53,4.53,0,0,0,.57.23c.39.14.78.27,1.17.37l.34.09.37.08.58.12a14.49,14.49,0,0,0,2.37.2h48.38A6.55,6.55,0,0,0,229.91,279.55Z" style="fill:#1C87FF"></path><path d="M229.91,279.55l-4.27,14.09a2.11,2.11,0,0,1-2,1.49h-4.46l.08-4.85a1.71,1.71,0,0,0-1.7-1.71h-39a1.47,1.47,0,0,0-1.48,1.26l-.56,4.15a1.33,1.33,0,0,1-1.32,1.15H172.4A2.47,2.47,0,0,1,170,293l-2.21-14.89a1.5,1.5,0,0,1,.32.19c.33.25.67.5,1,.73l.41.26.89.5.49.24.59.25c.19.09.38.16.57.23.39.14.78.27,1.17.37l.34.09.37.08.58.12a14.49,14.49,0,0,0,2.37.2h48.38A6.55,6.55,0,0,0,229.91,279.55Z" style="fill:#fff;opacity:0.2"></path><path d="M224.86,207.55l-6.26-14.09a2.51,2.51,0,0,0-2.25-1.49H210l.06,5.09a1.45,1.45,0,0,1-1.48,1.47H172.2a1.73,1.73,0,0,1-1.64-1.26l-1.11-4a1.79,1.79,0,0,0-1.72-1.31H163a2.11,2.11,0,0,0-2.12,1.77l-2.31,15.95a.32.32,0,0,0,.32.36l3.63-1a1.06,1.06,0,0,0,.34-.06h0a1.17,1.17,0,0,0,.3-.19c.29-.25.6-.5.91-.73l.38-.26c.27-.18.54-.34.82-.5a4.76,4.76,0,0,1,.45-.24l.55-.26c.18-.08.37-.16.55-.22a10.49,10.49,0,0,1,1.12-.37l.32-.09.36-.08.57-.12a13.83,13.83,0,0,1,2.33-.2h48.38A7.55,7.55,0,0,1,224.86,207.55Z" style="fill:#1C87FF"></path><path d="M224.86,207.55l-6.26-14.09a2.51,2.51,0,0,0-2.25-1.49h-4.47l.77,4.85a1.44,1.44,0,0,1-1.46,1.71h-39a1.73,1.73,0,0,1-1.64-1.26l-1.11-4a1.79,1.79,0,0,0-1.72-1.31h-2.57a2.09,2.09,0,0,0-2.14,2.09L162.9,209a1.17,1.17,0,0,0,.3-.19c.29-.25.6-.5.91-.73l.38-.26c.27-.18.54-.34.82-.5l.45-.24.55-.26.55-.22a10.49,10.49,0,0,1,1.12-.37l.32-.09.36-.08.57-.12a13.83,13.83,0,0,1,2.33-.2h48.38A7.55,7.55,0,0,1,224.86,207.55Z" style="fill:#fff;opacity:0.2"></path><path d="M211.19,192.94l.67,4.37a1.06,1.06,0,0,1-1.05,1.22h-8.35v-9.75h10.75V192H212A.85.85,0,0,0,211.19,192.94Z" style="fill:#263238"></path><path d="M220.93,295.13h-1.57a1,1,0,0,1-1-1.06l.12-3.83a1.69,1.69,0,0,0-1.68-1.73h-3.72v13.07L220,300Z" style="fill:#263238"></path></g><g id="freepik--Hourglass--inject-4"><path d="M405.23,388.05c-4.24-3.09-6.07-6.85-6.41-10.26.34-3.42,2.17-7.18,6.41-10.26C415.41,360.11,416.1,347,416.1,347L396,346.41v-.05l-.87,0-.86,0v.05l-20.13.55s.69,13.15,10.88,20.57c4.23,3.08,6.07,6.84,6.4,10.26-.33,3.41-2.17,7.17-6.4,10.26-10.19,7.41-10.88,20.57-10.88,20.57l20.13.54v0l.86,0,.87,0v0l20.12-.54S415.41,395.46,405.23,388.05Z" style="fill:#1C87FF"></path><path d="M405.23,388.05c-4.24-3.09-6.07-6.85-6.41-10.26.34-3.42,2.17-7.18,6.41-10.26C415.41,360.11,416.1,347,416.1,347L396,346.41v-.05l-.87,0-.86,0v.05l-20.13.55s.69,13.15,10.88,20.57c4.23,3.08,6.07,6.84,6.4,10.26-.33,3.41-2.17,7.17-6.4,10.26-10.19,7.41-10.88,20.57-10.88,20.57l20.13.54v0l.86,0,.87,0v0l20.12-.54S415.41,395.46,405.23,388.05Z" style="fill:#fff;opacity:0.6000000000000001"></path><polygon points="418.36 415.06 371.87 415.06 373.65 409.2 416.58 409.2 418.36 415.06" style="fill:#1C87FF"></polygon><polygon points="418.36 415.06 371.87 415.06 373.65 409.2 416.58 409.2 418.36 415.06" style="fill:#fff;opacity:0.2"></polygon><path d="M418.32,413.24H371.91a1.83,1.83,0,0,0-1.83,1.82h0a1.83,1.83,0,0,0,1.83,1.82h46.41a1.83,1.83,0,0,0,1.82-1.82h0A1.83,1.83,0,0,0,418.32,413.24Z" style="fill:#1C87FF"></path><path d="M374.09,410.58h42.05a1.43,1.43,0,0,0,1.44-1.44h0a1.43,1.43,0,0,0-1.44-1.44H374.09a1.44,1.44,0,0,0-1.45,1.44h0A1.44,1.44,0,0,0,374.09,410.58Z" style="fill:#1C87FF"></path><polygon points="371.87 340.51 418.36 340.51 416.58 346.37 373.65 346.37 371.87 340.51" style="fill:#1C87FF"></polygon><polygon points="371.87 340.51 418.36 340.51 416.58 346.37 373.65 346.37 371.87 340.51" style="fill:#fff;opacity:0.2"></polygon><path d="M371.91,342.33h46.41a1.82,1.82,0,0,0,1.82-1.82h0a1.83,1.83,0,0,0-1.82-1.82H371.91a1.83,1.83,0,0,0-1.83,1.82h0A1.82,1.82,0,0,0,371.91,342.33Z" style="fill:#1C87FF"></path><path d="M416.14,345H374.09a1.45,1.45,0,0,0-1.45,1.44h0a1.45,1.45,0,0,0,1.45,1.45h42.05a1.44,1.44,0,0,0,1.44-1.45h0A1.44,1.44,0,0,0,416.14,345Z" style="fill:#1C87FF"></path><path d="M412.4,402.18c-1.29-1.09-5.94-2.07-8.91-3.43-2.25-1-4.79-2.56-7-3.28a1.47,1.47,0,0,0-1.24-1.3V374.29a6.37,6.37,0,0,1,.56-2.42c3.58-.53,7.64-5.39,7.64-5.39a48.4,48.4,0,0,0-5.63-1.57c-1.19-.09-4.65,1.37-6.43.28s-4.45,1.29-4.45,1.29,3.41,4.07,6.73,5.16c.64,4.67.49,22.33.49,22.33s-1.19.19-.79,1.24h0c-2.89.65-7.88,3.39-11.48,4.5-4.15,1.29-5.73,6.43-5.73,6.43h38.17S413.68,403.27,412.4,402.18Z" style="opacity:0.4"></path></g><g id="freepik--Character--inject-4"><path d="M344,191.28s9.9,3.59,8.18,8.61-13.57-1.76-13.57-1.76Z" style="fill:#ebb376"></path><path d="M344,191.28s9.9,3.59,8.18,8.61-13.57-1.76-13.57-1.76Z" style="isolation:isolate;opacity:0.2"></path><path d="M326.86,180.26c5.5,1.17,19.5,10.7,19.5,10.7l-4.74,11.35-12.68-4.18Z" style="fill:#1C87FF"></path><path d="M346.36,191l-4.75,11.34-3.67-1.2-9-3-1.13-9.74-.95-8.12C332.36,181.43,346.36,191,346.36,191Z" style="fill:#fff;opacity:0.6000000000000001"></path><polygon points="346.26 190.56 341.09 202.42 342.41 202.73 347.17 191.22 346.26 190.56" style="fill:#1C87FF"></polygon><polygon points="346.26 190.56 341.09 202.42 342.41 202.73 347.17 191.22 346.26 190.56" style="fill:#fff;opacity:0.7000000000000001"></polygon><path d="M337.94,201.1l-9-3-1.13-9.74C331.26,189.82,338,193.56,337.94,201.1Z" style="isolation:isolate;opacity:0.2"></path><path d="M311.46,178.29l-15,1.14v7.26H318l2.39-4.74A7.74,7.74,0,0,0,311.46,178.29Z" style="fill:#1C87FF"></path><path d="M311.46,178.29l-15,1.14v7.26H318l2.39-4.74A7.74,7.74,0,0,0,311.46,178.29Z" style="fill:#fff;opacity:0.7000000000000001"></path><polygon points="305.4 400.1 312.27 404.05 320.49 389.13 313.63 385.18 305.4 400.1" style="fill:#eec1bb"></polygon><path d="M313.1,403.17l-7.63-4.85a.64.64,0,0,0-.82.07l-4.6,4.78a1.14,1.14,0,0,0,.13,1.61,1.33,1.33,0,0,0,.19.14c2.66,1.63,4.1,2.36,7.42,4.47,2,1.29,10.68,5.94,13.87,6.16s3.55-2.79,2.25-3.28c-6.56-2.44-9.11-5.57-10-8A2.09,2.09,0,0,0,313.1,403.17Z" style="fill:#263238"></path><polygon points="313.63 385.18 320.49 389.13 316.24 396.82 309.38 392.87 313.63 385.18" style="isolation:isolate;opacity:0.2"></polygon><path d="M332.78,225s22.46,74.44,21.23,96.56c-1.35,24.26-34,75.29-34,75.29l-12.3-7.76s23-50.28,23.9-68.9c-1.27-26.93-29.27-92.35-29.27-92.35Z" style="fill:#1C87FF"></path><path d="M315,251.17c6.8,4.16,9.48,21.88,8.05,30.87-3.67-11.39-7.86-22.62-11.22-31.22A3.17,3.17,0,0,1,315,251.17Z" style="isolation:isolate;opacity:0.2"></path><polygon points="321.41 398.06 306.92 388.88 309.3 384.79 324.49 394.06 321.41 398.06" style="fill:#1C87FF"></polygon><path d="M313.07,404.33a.17.17,0,0,1-.05-.2.15.15,0,0,1,.16-.1c.33,0,3.22.14,3.76,1a.57.57,0,0,1,0,.59,1,1,0,0,1-.78.59,2.57,2.57,0,0,1-1.49-.5A9.78,9.78,0,0,1,313.07,404.33Zm.57.09a4.1,4.1,0,0,0,2.45,1.4.62.62,0,0,0,.53-.41.2.2,0,0,0,0-.23.77.77,0,0,0-.18-.18A7.92,7.92,0,0,0,313.64,404.42Z" style="fill:#1C87FF"></path><path d="M313,404.29a.15.15,0,0,1,0-.18c.05-.11,1.27-1.83,2.41-1.94a1.08,1.08,0,0,1,.79.24.63.63,0,0,1,.28.71c-.28.8-2.43,1.34-3.33,1.25h-.09A.12.12,0,0,1,313,404.29Zm2.91-1.63a.68.68,0,0,0-.44-.1c-.72.07-1.56,1-1.94,1.48,1-.06,2.44-.56,2.6-1,0,0,.05-.14-.15-.3l-.07,0Z" style="fill:#1C87FF"></path><polygon points="290.45 409.08 298.08 409.08 298.71 391.41 291.07 391.41 290.45 409.08" style="fill:#eec1bb"></polygon><path d="M299.14,408.2h-9.27a.66.66,0,0,0-.65.52l-1.5,6.79a1.13,1.13,0,0,0,.86,1.34l.25,0c3-.05,5.18-.23,8.95-.23,2.32,0,9.31.24,12.52.24s3.62-3.16,2.31-3.45c-5.88-1.29-10.31-3.06-12.19-4.75A1.84,1.84,0,0,0,299.14,408.2Z" style="fill:#263238"></path><polygon points="291.07 391.42 298.71 391.42 298.38 400.53 290.74 400.53 291.07 391.42" style="isolation:isolate;opacity:0.2"></polygon><path d="M322.37,226.53s-6.2,72.93-9.43,95c-3.52,24.26-11.06,77.18-11.06,77.18H287.93s2.85-50.65,4.17-74.49c1.52-27.17,2.24-95.44,2.24-95.44Z" style="fill:#1C87FF"></path><polygon points="303.56 399.06 287.11 399.06 287.11 394.14 304.18 393.82 303.56 399.06" style="fill:#1C87FF"></polygon><path d="M299.66,409.25a.17.17,0,0,1-.13-.15.17.17,0,0,1,.08-.18c.27-.17,2.74-1.69,3.58-1.25a.53.53,0,0,1,.31.51,1.09,1.09,0,0,1-.37,1,2.25,2.25,0,0,1-1.47.38A9.09,9.09,0,0,1,299.66,409.25Zm.53-.25a3.68,3.68,0,0,0,2.71-.14.72.72,0,0,0,.24-.65c0-.14-.06-.21-.11-.21a.46.46,0,0,0-.23-.05A7.43,7.43,0,0,0,300.19,409Z" style="fill:#1C87FF"></path><path d="M299.61,409.29a.17.17,0,0,1-.08-.16c0-.11.19-2.3,1.07-3a.94.94,0,0,1,.77-.23.58.58,0,0,1,.58.47c.16.81-1.37,2.49-2.15,2.91h-.09A.17.17,0,0,1,299.61,409.29Zm1.23-3a4.27,4.27,0,0,0-.91,2.39c.79-.59,1.76-1.86,1.66-2.36,0-.05,0-.18-.26-.18h-.09A.59.59,0,0,0,300.84,406.32Z" style="fill:#1C87FF"></path><path d="M335,233l-41.57,2.75c-2.28-20.16-8.91-40.89-10.88-48.21A2,2,0,0,1,284,185c2.06-.6,4.18-1.13,6.34-1.61a200.61,200.61,0,0,1,29.48-4,17.84,17.84,0,0,1,7.09.77C333.1,197.94,334.57,219.54,335,233Z" style="fill:#263238"></path><path d="M284.24,193.34c1,3.45,2.21,7.77,3.45,12.64,4.55-6.41.49-15.71.49-15.71A9.05,9.05,0,0,0,284.24,193.34Z" style="isolation:isolate;opacity:0.2"></path><polygon points="304.92 195.66 321.13 193.81 315.77 210.81 304.92 195.66" style="fill:#fff;opacity:0.6000000000000001"></polygon><polygon points="306.79 207.41 306.23 201.23 321.72 198.15 322.63 202.78 306.79 207.41" style="fill:#263238"></polygon><polygon points="306.79 207.41 306.23 201.23 321.72 198.15 322.63 202.78 306.79 207.41" style="fill:#fff;opacity:0.2"></polygon><path d="M297.76,182.15c3.57,3.25,12.31,2,12.31,2s5.47-1.49,4.32-3.2c-3.22-.52-4.78-2-5.42-4a9.62,9.62,0,0,1-.33-3.67c0-.31.06-.61.1-.9s.11-.77.18-1.15l-10.81-8c.39,1.46.8,3.26,1.13,5.19.76,4.54,1,9.76-.83,12.76A5.36,5.36,0,0,1,297.76,182.15Z" style="fill:#ebb376"></path><path d="M298.41,181.26a10.66,10.66,0,0,0,10.33-8.79c.14-.7.18-1.15.18-1.15a37.46,37.46,0,0,0-9.68-2.82C300,173,300.24,178.26,298.41,181.26Z" style="isolation:isolate;opacity:0.2"></path><path d="M294.71,145.84s-5,9.27-1.15,14.91S304,148.14,304,148.14Z" style="fill:#263238"></path><path d="M290.28,166a9.91,9.91,0,0,0,.13,1.11,10.55,10.55,0,0,0,4,6.64,9.72,9.72,0,0,0,6.7,2,9.56,9.56,0,0,0,4.76-1.79c4.4-3.11,5.08-7.47,6.81-14.75a10.13,10.13,0,0,0,.08-4.77,10.24,10.24,0,0,0-12.2-7.79C292.82,148.32,289.87,159.09,290.28,166Z" style="fill:#ebb376"></path><path d="M301.13,159.3c-.06.6-.51,1-.9.95s-.63-.61-.52-1.21.51-1,.9-1S301.23,158.69,301.13,159.3Z" style="fill:#263238"></path><path d="M294.34,158.09c-.06.61-.51,1-.9,1s-.62-.62-.52-1.21.51-1,.9-1S294.44,157.52,294.34,158.09Z" style="fill:#263238"></path><path d="M296.45,158.77a21.58,21.58,0,0,1-3.78,4.63,3.54,3.54,0,0,0,2.79,1Z" style="fill:#d58745"></path><path d="M292.34,154.75a.38.38,0,0,0,.37.06,2.86,2.86,0,0,1,2.58.15.37.37,0,0,0,.5-.09.35.35,0,0,0-.09-.49h0a3.56,3.56,0,0,0-3.25-.24.35.35,0,0,0-.21.46h0A.71.71,0,0,0,292.34,154.75Z" style="fill:#263238"></path><path d="M303,156.82a.31.31,0,0,0,.21,0,.36.36,0,0,0,.06-.5h0a3.54,3.54,0,0,0-3-1.35.36.36,0,0,0-.31.39h0a.38.38,0,0,0,.39.32h0a2.87,2.87,0,0,1,2.35,1.1A.34.34,0,0,0,303,156.82Z" style="fill:#263238"></path><path d="M308.9,149.06l-1.12,3.13a2.45,2.45,0,0,1,.52,3.29c-1.65,2.48-1.07,7,.63,9.17,0,0,.33-1.16,1.26-.66s-.73,6.55-3.32,9c0,0,3.51-2,6.62-8,2.86-5.58,4.17-10.48,3.48-13.05Z" style="fill:#263238"></path><path d="M314.83,165.83a7.16,7.16,0,0,1-4.64,2.84c-2.47.36-3.4-1.92-2.46-4.1.85-1.92,3.16-4.5,5.52-3.85S316.18,163.94,314.83,165.83Z" style="fill:#ebb376"></path><path d="M317.15,153.54s1.7-4.06-4.24-8.81-14.06-2.55-17.9-6.36-6.52,7.86,2.71,11.23A77,77,0,0,0,317.15,153.54Z" style="fill:#263238"></path><path d="M295.6,166.63a22.33,22.33,0,0,1,1.82,2.68l.54-.21c2.4-.95,3.2-2.18,3.36-3.26a3.39,3.39,0,0,0-.18-1.57,3.22,3.22,0,0,0-.4-.81,12.21,12.21,0,0,1-4.33,2.84C295.92,166.52,295.6,166.63,295.6,166.63Z" style="fill:#263238"></path><path d="M296.41,166.3l.56.77c2.26-.9,3.73-1.83,4.17-2.8a3.22,3.22,0,0,0-.4-.81A12.21,12.21,0,0,1,296.41,166.3Z" style="fill:#fff"></path><path d="M298,169.1c2.4-.95,3.2-2.18,3.36-3.26a8.16,8.16,0,0,0-2.46,1.58A3.07,3.07,0,0,0,298,169.1Z" style="fill:#de5753"></path><path d="M294,178.72h4.38l2,8.08s4,18.41-10.93,60.95L278,240.64s6.8-24.49,6.69-37.07S284,185,284,185l9-3.08Z" style="fill:#1C87FF"></path><path d="M311.46,178.29,318,175.8l3.76,2.49,5.08,2a437.84,437.84,0,0,1,16.27,54.32l-2.26,2S329.5,195.94,320.74,187l-.32-5.07S316.28,178.4,311.46,178.29Z" style="fill:#1C87FF"></path><path d="M289.49,247.75,278,240.64s4.6-16.58,6.17-29.46a60,60,0,0,0,.51-7.6c0-.47,0-.93,0-1.37C284.52,190.57,284,185,284,185l9-3.09,1.06-3.23h4.38l2,8.08S304.44,205.21,289.49,247.75Z" style="fill:#fff;opacity:0.6000000000000001"></path><path d="M311.46,178.29,318,175.8l3.76,2.49,5.08,2a437.84,437.84,0,0,1,16.27,54.32l-2.26,2S329.5,195.94,320.74,187l-.32-5.07S316.28,178.4,311.46,178.29Z" style="fill:#fff;opacity:0.6000000000000001"></path><polygon points="298.41 178.72 296.41 184.41 291.35 181.26 294.03 178.72 298.41 178.72" style="fill:#1C87FF"></polygon><path d="M318,175.8,323.2,178,318,174.88l-6.87,3.44a22.74,22.74,0,0,1,9.26,3.63Z" style="fill:#1C87FF"></path><polygon points="298.41 178.72 296.41 184.41 291.35 181.26 294.03 178.72 298.41 178.72" style="fill:#fff;opacity:0.7000000000000001"></polygon><path d="M318,175.8,323.2,178,318,174.88l-6.87,3.44a22.74,22.74,0,0,1,9.26,3.63Z" style="fill:#fff;opacity:0.7000000000000001"></path><path d="M287.93,202.25s-.48,6.05-3.76,8.93a60,60,0,0,0,.51-7.6c0-.47,0-.93,0-1.37A10,10,0,0,1,287.93,202.25Z" style="isolation:isolate;opacity:0.2"></path><path d="M352.26,197.85c-3.21-4.61-6.72-3.53-26.45-5.47v6.09c3.33.92,20.82,5.67,23.35,5.42C352,203.61,354.4,200.93,352.26,197.85Z" style="fill:#ebb376"></path><path d="M326.16,192.36l-8.43,0,3.76,7.78s6.95-.45,6.56-4Z" style="fill:#ebb376"></path><polygon points="311.16 196.44 316.67 202.03 321.49 200.18 317.73 192.4 311.16 196.44" style="fill:#ebb376"></polygon><path d="M326.16,192.36c.34.09,3.6,2,1.65,6.66l.26.59,1.45.33a5.25,5.25,0,0,0,.86-5.2A3.7,3.7,0,0,0,326.16,192.36Z" style="fill:#263238"></path><polygon points="326.16 192.36 326.16 192.67 327.14 194.33 328.27 195.02 328.66 194.74 328.66 194.26 330.17 194.61 330.48 195.02 330.59 195.43 330.87 195.28 331.02 194.86 329.98 193.21 328.77 192.4 326.86 192.08 326.16 192.36" style="fill:#1C87FF"></polygon><polygon points="327.6 192.7 328.21 193.75 330.15 194.16 329.65 193.21 327.6 192.7" style="fill:#263238"></polygon><path d="M284.23,233.52l4.35-2.42s-18.25-16.29-18.25-17.8,5.52-6.89,5.52-6.89l-7.64-5.86s-9.17,7.48-7.31,14S284.23,233.52,284.23,233.52Z" style="fill:#ebb376"></path><path d="M288.19,230.07l7.76,3.27-6.46,5.74s-6.24-3.09-4.51-6.24Z" style="fill:#ebb376"></path><polygon points="300.46 239.6 293.24 242.65 289.49 239.08 295.95 233.34 300.46 239.6" style="fill:#ebb376"></polygon><path d="M284,185c-6.09,2.86-18.21,17.17-18.21,17.17l9,10.41,13.15-10.37s1.29-8.29.25-12A9,9,0,0,0,284,185Z" style="fill:#1C87FF"></path><path d="M284,185c-6.09,2.86-18.21,17.17-18.21,17.17l9,10.41,13.15-10.37s1.29-8.29.25-12A9,9,0,0,0,284,185Z" style="fill:#fff;opacity:0.6000000000000001"></path><polygon points="264.57 202.7 265.75 200.93 275.73 212.57 274.01 214.13 264.57 202.7" style="fill:#1C87FF"></polygon><polygon points="264.57 202.7 265.75 200.93 275.73 212.57 274.01 214.13 264.57 202.7" style="fill:#fff;opacity:0.7000000000000001"></polygon><polygon points="321.41 398.06 306.92 388.88 309.3 384.79 324.49 394.06 321.41 398.06" style="fill:#fff;opacity:0.2"></polygon><polygon points="303.56 399.06 287.11 399.06 287.11 394.14 304.18 393.82 303.56 399.06" style="fill:#fff;opacity:0.2"></polygon></g></svg>